<?xml version="1.0" standalone="no"?>
<!DOCTYPE svg PUBLIC "-//W3C//DTD SVG 1.1//EN" "http://www.w3.org/Graphics/SVG/1.1/DTD/svg11.dtd" >
<svg xmlns="http://www.w3.org/2000/svg" xmlns:xlink="http://www.w3.org/1999/xlink" version="1.1">
<metadata>
Created by FontForge 20170731 at Tue Sep 20 17:40:57 2022
 By Aleksey,,,
</metadata>
<defs>
<font id="Alixn-Regular" horiz-adv-x="250" >
  <font-face 
    font-family="Alixn"
    font-weight="400"
    font-stretch="normal"
    units-per-em="1000"
    panose-1="2 0 5 3 0 0 0 0 0 0"
    ascent="800"
    descent="-200"
    cap-height="569"
    bbox="33 -60 769 674"
    underline-thickness="50"
    underline-position="-150"
    unicode-range="U+000D-00A0"
  />
<missing-glyph horiz-adv-x="364" 
d="M33 0v666h265v-666h-265zM66 33h199v600h-199v-600z" />
    <glyph glyph-name=".notdef" horiz-adv-x="364" 
d="M33 0v666h265v-666h-265zM66 33h199v600h-199v-600z" />
    <glyph glyph-name=".null" 
 />
    <glyph glyph-name=".null" 
 />
    <glyph glyph-name="nonmarkingreturn" horiz-adv-x="333" 
 />
    <glyph glyph-name="CR" unicode="&#xd;" 
 />
    <glyph glyph-name="space" unicode=" " 
 />
    <glyph glyph-name="A" unicode="A" horiz-adv-x="629" 
d="M520 546q11 4 19 4q9 0 15 -5q9 -8 12.5 -119t8.5 -117q5 -7 2 -26q-4 -22 -4 -128q-1 -145 -18 -184q-7 -17 -19 -17q-13 0 -25 22.5t-16 56.5q-2 18 -2 117v27q0 57 -4 57q-2 0 -38 4q-39 7 -162 10q-205 8 -224 15q-11 5 -11 17q0 13 217 18q180 5 202 11l22 5l5 111
q5 113 6 114z" />
    <glyph glyph-name="A" unicode="a" horiz-adv-x="629" 
d="M520 546q11 4 19 4q9 0 15 -5q9 -8 12.5 -119t8.5 -117q5 -7 2 -26q-4 -22 -4 -128q-1 -145 -18 -184q-7 -17 -19 -17q-13 0 -25 22.5t-16 56.5q-2 18 -2 117v27q0 57 -4 57q-2 0 -38 4q-39 7 -162 10q-205 8 -224 15q-11 5 -11 17q0 13 217 18q180 5 202 11l22 5l5 111
q5 113 6 114z" />
    <glyph glyph-name="B" unicode="B" horiz-adv-x="808" 
d="M384 625q8 2 11 2q11 0 25 -17q16 -19 16 -35q0 -11 -9 -31q-12 -27 -29 -27q-3 0 -15 2q-16 4 -26.5 19t-10.5 35q0 27 23 35q9 2 9 9q0 6 6 8zM87 337q11 4 31 4q31 0 41 -8q6 -6 6 -25q0 -27 -11 -54q-11 -26 -19.5 -34t-22.5 -8t-29 14t-24 36q-6 15 -6 29
q0 32 34 46zM676 318q10 6 26 6q22 0 39 -10q13 -8 13 -19q0 -10 -1 -17q-2 -25 -12 -47.5t-19 -24.5h-2q-1 -1 -2 -1q-19 0 -41.5 25.5t-22.5 47.5q0 27 22 40zM403 55q18 6 30 6q13 0 31 -8q13 -7 15.5 -11t2.5 -22q0 -23 -11 -47q-15 -33 -34 -33q-13 0 -29 12
q-14 10 -26.5 32t-12.5 36q0 24 34 35z" />
    <glyph glyph-name="B" unicode="b" horiz-adv-x="808" 
d="M384 625q8 2 11 2q11 0 25 -17q16 -19 16 -35q0 -11 -9 -31q-12 -27 -29 -27q-3 0 -15 2q-16 4 -26.5 19t-10.5 35q0 27 23 35q9 2 9 9q0 6 6 8zM87 337q11 4 31 4q31 0 41 -8q6 -6 6 -25q0 -27 -11 -54q-11 -26 -19.5 -34t-22.5 -8t-29 14t-24 36q-6 15 -6 29
q0 32 34 46zM676 318q10 6 26 6q22 0 39 -10q13 -8 13 -19q0 -10 -1 -17q-2 -25 -12 -47.5t-19 -24.5h-2q-1 -1 -2 -1q-19 0 -41.5 25.5t-22.5 47.5q0 27 22 40zM403 55q18 6 30 6q13 0 31 -8q13 -7 15.5 -11t2.5 -22q0 -23 -11 -47q-15 -33 -34 -33q-13 0 -29 12
q-14 10 -26.5 32t-12.5 36q0 24 34 35z" />
    <glyph glyph-name="C" unicode="C" horiz-adv-x="824" 
d="M407 531q16 17 33 17q13 0 18 -3t12 -17q22 -38 161 -228q5 -6 74 -101q54 -74 57 -77q7 -8 7 -22q0 -17 -8 -33q-9 -19 -18 -19q-7 0 -14 6q-6 4 -16 22t-10 23q0 6 -129 191.5t-133 185.5q-3 0 -47 -55q-113 -140 -211.5 -254.5t-105.5 -114.5t-15 10.5t-8 18.5
q0 7 30 46q64 85 182 232t141 172zM405 228q18 4 25 4q16 0 27 -6t11 -16q0 -26 -28 -60q-16 -18 -22 -27q-4 -7 -10 -7q-8 0 -26 25q-16 22 -16 35t13 29q14 19 26 23z" />
    <glyph glyph-name="C" unicode="c" horiz-adv-x="824" 
d="M407 531q16 17 33 17q13 0 18 -3t12 -17q22 -38 161 -228q5 -6 74 -101q54 -74 57 -77q7 -8 7 -22q0 -17 -8 -33q-9 -19 -18 -19q-7 0 -14 6q-6 4 -16 22t-10 23q0 6 -129 191.5t-133 185.5q-3 0 -47 -55q-113 -140 -211.5 -254.5t-105.5 -114.5t-15 10.5t-8 18.5
q0 7 30 46q64 85 182 232t141 172zM405 228q18 4 25 4q16 0 27 -6t11 -16q0 -26 -28 -60q-16 -18 -22 -27q-4 -7 -10 -7q-8 0 -26 25q-16 22 -16 35t13 29q14 19 26 23z" />
    <glyph glyph-name="D" unicode="D" horiz-adv-x="688" 
d="M204 297q31 7 39 7q11 0 21 -7q8 -5 10 -13.5t-4 -12.5q-5 -3 -5 -11q0 -13 -12.5 -17t-55.5 -4h-24q-63 1 -86 6t-30 21q-4 8 -4 14q0 7 12.5 9t51.5 2q57 0 87 6zM533 299q13 1 30 2t27.5 2t13.5 1h4q27 0 27 -24q0 -10 -8 -28q-6 -14 -14 -14q-6 0 -10 1q-15 3 -78 7
q-52 4 -69.5 10t-17.5 22q0 10 16.5 13.5t78.5 7.5z" />
    <glyph glyph-name="D" unicode="d" horiz-adv-x="688" 
d="M204 297q31 7 39 7q11 0 21 -7q8 -5 10 -13.5t-4 -12.5q-5 -3 -5 -11q0 -13 -12.5 -17t-55.5 -4h-24q-63 1 -86 6t-30 21q-4 8 -4 14q0 7 12.5 9t51.5 2q57 0 87 6zM533 299q13 1 30 2t27.5 2t13.5 1h4q27 0 27 -24q0 -10 -8 -28q-6 -14 -14 -14q-6 0 -10 1q-15 3 -78 7
q-52 4 -69.5 10t-17.5 22q0 10 16.5 13.5t78.5 7.5z" />
    <glyph glyph-name="E" unicode="E" horiz-adv-x="620" 
d="M177 642q88 4 219 4q150 0 158 -4q5 -3 8 -212q1 -51 2.5 -112.5t3 -113.5t1.5 -66q1 -21 1 -51q0 -37 -4 -45l-6 -12l-205 -3q-204 -2 -212 -9q-10 -8 -19 -8q-10 0 -22 9q-16 12 -27.5 32.5t-11.5 36.5q0 8 3 12q3 5 25 12.5t35 7.5q12 0 26 -7q16 -7 106 -14
q70 -4 172 -11q44 -3 71 -3q14 0 15 1q3 3 5 260l1 257l-37 -3q-39 -3 -153 -3q-132 0 -197 3q-70 4 -76 11q-7 8 -5 15t24 9.5t99 6.5zM278 374q15 6 27 6q30 0 30 -29v-6q-3 -20 -13 -39.5t-19 -21.5q-2 -1 -7 -1q-18 0 -33.5 19t-15.5 38q0 13 8 20q11 8 23 14z" />
    <glyph glyph-name="E" unicode="e" horiz-adv-x="620" 
d="M177 642q88 4 219 4q150 0 158 -4q5 -3 8 -212q1 -51 2.5 -112.5t3 -113.5t1.5 -66q1 -21 1 -51q0 -37 -4 -45l-6 -12l-205 -3q-204 -2 -212 -9q-10 -8 -19 -8q-10 0 -22 9q-16 12 -27.5 32.5t-11.5 36.5q0 8 3 12q3 5 25 12.5t35 7.5q12 0 26 -7q16 -7 106 -14
q70 -4 172 -11q44 -3 71 -3q14 0 15 1q3 3 5 260l1 257l-37 -3q-39 -3 -153 -3q-132 0 -197 3q-70 4 -76 11q-7 8 -5 15t24 9.5t99 6.5zM278 374q15 6 27 6q30 0 30 -29v-6q-3 -20 -13 -39.5t-19 -21.5q-2 -1 -7 -1q-18 0 -33.5 19t-15.5 38q0 13 8 20q11 8 23 14z" />
    <glyph glyph-name="F" unicode="F" horiz-adv-x="777" 
d="M552 430q-9 14 -11 14l-23 -19q-20 -17 -127.5 -117t-117.5 -111l-12 -14l9 -13q20 -28 58.5 -45.5t77.5 -17.5q14 0 28 3q23 5 50.5 22.5t44.5 37.5q56 66 56 153q0 17 -3 34q-5 34 -30 73zM463 520q-27 9 -54 9q-48 0 -100 -28q-24 -13 -50.5 -38t-36.5 -46
q-17 -33 -17 -81q0 -22 2 -32q4 -24 13 -50t14 -26q2 0 139 137q130 131 130 139q0 2 -1 2q-8 5 -39 14zM673 660q9 4 20 4q28 0 28 -19q0 -17 -13 -34.5t-55 -56.5q-53 -49 -53 -55q0 -3 3 -5q8 -7 21 -48q16 -54 16 -115q0 -47 -9 -81q-24 -92 -81 -149q-71 -71 -159 -71
t-164 70l-31 27l-60 -55q-58 -54 -66 -54q-2 0 -11 13q-3 4 -3 8q0 8 56 64l60 61l-16 31q-36 72 -36 146q0 92 52 159.5t141 90.5q25 7 56 7q93 0 148 -52l19 -18l62 58q63 59 64 64q2 6 11 10z" />
    <glyph glyph-name="F" unicode="f" horiz-adv-x="777" 
d="M552 430q-9 14 -11 14l-23 -19q-20 -17 -127.5 -117t-117.5 -111l-12 -14l9 -13q20 -28 58.5 -45.5t77.5 -17.5q14 0 28 3q23 5 50.5 22.5t44.5 37.5q56 66 56 153q0 17 -3 34q-5 34 -30 73zM463 520q-27 9 -54 9q-48 0 -100 -28q-24 -13 -50.5 -38t-36.5 -46
q-17 -33 -17 -81q0 -22 2 -32q4 -24 13 -50t14 -26q2 0 139 137q130 131 130 139q0 2 -1 2q-8 5 -39 14zM673 660q9 4 20 4q28 0 28 -19q0 -17 -13 -34.5t-55 -56.5q-53 -49 -53 -55q0 -3 3 -5q8 -7 21 -48q16 -54 16 -115q0 -47 -9 -81q-24 -92 -81 -149q-71 -71 -159 -71
t-164 70l-31 27l-60 -55q-58 -54 -66 -54q-2 0 -11 13q-3 4 -3 8q0 8 56 64l60 61l-16 31q-36 72 -36 146q0 92 52 159.5t141 90.5q25 7 56 7q93 0 148 -52l19 -18l62 58q63 59 64 64q2 6 11 10z" />
    <glyph glyph-name="G" unicode="G" horiz-adv-x="698" 
d="M540 595q60 6 72 6q11 0 23 -5l12 -5l-3 -75q-9 -223 -9 -317q0 -36 2 -42q4 -9 4 -27q0 -26 -9 -52.5t-21 -33.5q-4 -2 -7 -2q-20 0 -40 36q-16 29 -16 43q0 8 5 25q7 32 7 194q0 167 -7 167q-14 0 -63 -6t-70 -10q-54 -9 -153 -18q-122 -13 -126 -15q-7 -4 -10 -57
q-19 -308 -33 -336q-6 -12 -13 -12t-19 18l-13 19l-2 225q0 27 -0.5 73.5t-0.5 64.5q0 91 2 95q5 11 57 16.5t220 12.5q65 4 67 8t44 4q36 0 100 6z" />
    <glyph glyph-name="G" unicode="g" horiz-adv-x="698" 
d="M540 595q60 6 72 6q11 0 23 -5l12 -5l-3 -75q-9 -223 -9 -317q0 -36 2 -42q4 -9 4 -27q0 -26 -9 -52.5t-21 -33.5q-4 -2 -7 -2q-20 0 -40 36q-16 29 -16 43q0 8 5 25q7 32 7 194q0 167 -7 167q-14 0 -63 -6t-70 -10q-54 -9 -153 -18q-122 -13 -126 -15q-7 -4 -10 -57
q-19 -308 -33 -336q-6 -12 -13 -12t-19 18l-13 19l-2 225q0 27 -0.5 73.5t-0.5 64.5q0 91 2 95q5 11 57 16.5t220 12.5q65 4 67 8t44 4q36 0 100 6z" />
    <glyph glyph-name="H" unicode="H" horiz-adv-x="725" 
d="M337 665q15 9 24 9q10 0 10 -11q0 -10 -4 -22q-4 -11 -107 -118l-104 -109q343 -6 347 -8q9 -3 9 -13q0 -22 -39 -70q-23 -28 -56 -72t-57.5 -77.5t-23.5 -33.5h2q17 0 143 17t141 21q12 3 21 3q26 0 26 -22q0 -11 -11 -35l-10 -20l-22 1h-1q-22 0 -135.5 -14.5
t-185.5 -27.5q-25 -4 -39 -4q-11 0 -14 2q-9 4 -18.5 21t-9.5 28q0 1 1 2v2q4 10 97 121l94 112l-68 3q-74 4 -168 4h-100l-12 17q-11 17 -11 24t130 132t151 138z" />
    <glyph glyph-name="H" unicode="h" horiz-adv-x="725" 
d="M337 665q15 9 24 9q10 0 10 -11q0 -10 -4 -22q-4 -11 -107 -118l-104 -109q343 -6 347 -8q9 -3 9 -13q0 -22 -39 -70q-23 -28 -56 -72t-57.5 -77.5t-23.5 -33.5h2q17 0 143 17t141 21q12 3 21 3q26 0 26 -22q0 -11 -11 -35l-10 -20l-22 1h-1q-22 0 -135.5 -14.5
t-185.5 -27.5q-25 -4 -39 -4q-11 0 -14 2q-9 4 -18.5 21t-9.5 28q0 1 1 2v2q4 10 97 121l94 112l-68 3q-74 4 -168 4h-100l-12 17q-11 17 -11 24t130 132t151 138z" />
    <glyph glyph-name="I" unicode="I" horiz-adv-x="577" 
d="M81 566q15 3 27 3q15 0 24 -4q7 -3 67 -3q19 0 123 2q114 2 128 2q44 0 58 -3.5t14 -12.5q0 -6 -1 -9q-5 -19 -11 -29q-4 -8 -6 -10t-5.5 -3.5t-9.5 -1.5h-10h-12q-27 0 -53 -3q-30 -4 -153 -12q-110 -7 -111 -8t-5.5 -97t-11.5 -195t-12 -106q-4 -4 -2 -9
q3 -2 -1.5 -8.5t-9.5 -6.5q-8 0 -17 20.5t-14 48.5q-9 49 -25 385v15q0 23 6 32t23 13zM305 336q18 4 25 4q16 0 30 -8q10 -6 12 -11t2 -20q0 -20 -13 -46q-8 -17 -12.5 -21t-14.5 -5h-3q-20 0 -37 20.5t-17 44.5q0 2 0.5 4t0.5 4q2 16 7.5 22.5t19.5 11.5z" />
    <glyph glyph-name="I" unicode="i" horiz-adv-x="577" 
d="M81 566q15 3 27 3q15 0 24 -4q7 -3 67 -3q19 0 123 2q114 2 128 2q44 0 58 -3.5t14 -12.5q0 -6 -1 -9q-5 -19 -11 -29q-4 -8 -6 -10t-5.5 -3.5t-9.5 -1.5h-10h-12q-27 0 -53 -3q-30 -4 -153 -12q-110 -7 -111 -8t-5.5 -97t-11.5 -195t-12 -106q-4 -4 -2 -9
q3 -2 -1.5 -8.5t-9.5 -6.5q-8 0 -17 20.5t-14 48.5q-9 49 -25 385v15q0 23 6 32t23 13zM305 336q18 4 25 4q16 0 30 -8q10 -6 12 -11t2 -20q0 -20 -13 -46q-8 -17 -12.5 -21t-14.5 -5h-3q-20 0 -37 20.5t-17 44.5q0 2 0.5 4t0.5 4q2 16 7.5 22.5t19.5 11.5z" />
    <glyph glyph-name="J" unicode="J" horiz-adv-x="790" 
d="M370 475q18 2 33 2q51 0 96 -10q43 -10 92 -41.5t75 -66.5q29 -38 49.5 -92.5t20.5 -91.5q0 -21 -10.5 -48t-20.5 -32q-4 -2 -7 -2q-19 0 -43 44q-15 32 -15 44q0 40 -29 96q-16 29 -41 55q-27 28 -68 49t-78 25q-12 2 -36 2q-114 0 -204 -84q-97 -90 -122 -228
q-2 -11 -3 -11t-4 27q-1 6 -1 18q0 44 30 117q38 90 115 151.5t171 76.5z" />
    <glyph glyph-name="J" unicode="j" horiz-adv-x="790" 
d="M370 475q18 2 33 2q51 0 96 -10q43 -10 92 -41.5t75 -66.5q29 -38 49.5 -92.5t20.5 -91.5q0 -21 -10.5 -48t-20.5 -32q-4 -2 -7 -2q-19 0 -43 44q-15 32 -15 44q0 40 -29 96q-16 29 -41 55q-27 28 -68 49t-78 25q-12 2 -36 2q-114 0 -204 -84q-97 -90 -122 -228
q-2 -11 -3 -11t-4 27q-1 6 -1 18q0 44 30 117q38 90 115 151.5t171 76.5z" />
    <glyph glyph-name="K" unicode="K" horiz-adv-x="728" 
d="M494 553q-203 16 -335 16h-29l3 -121q8 -367 11 -370t134.5 -7t217.5 -4h100v15q0 3 1 16t2 33t2 36q18 290 18 347v33h-14q-30 0 -111 6zM73 614q17 5 24 5q13 0 25 -9q10 -7 46 -8t233 -1q269 0 273 -3q3 -2 3 -34q0 -39 -1 -71q0 -9 -2.5 -115.5t-3.5 -163.5
q-2 -130 -4 -156t-9 -44l-11 -24h-37q-5 0 -127 5q-63 4 -228 6q-140 2 -148 5t-19 25q-11 21 -16 120q-1 33 -5 101t-4 71q-10 167 -10 246q0 32 2 36q6 6 19 9z" />
    <glyph glyph-name="K" unicode="k" horiz-adv-x="728" 
d="M494 553q-203 16 -335 16h-29l3 -121q8 -367 11 -370t134.5 -7t217.5 -4h100v15q0 3 1 16t2 33t2 36q18 290 18 347v33h-14q-30 0 -111 6zM73 614q17 5 24 5q13 0 25 -9q10 -7 46 -8t233 -1q269 0 273 -3q3 -2 3 -34q0 -39 -1 -71q0 -9 -2.5 -115.5t-3.5 -163.5
q-2 -130 -4 -156t-9 -44l-11 -24h-37q-5 0 -127 5q-63 4 -228 6q-140 2 -148 5t-19 25q-11 21 -16 120q-1 33 -5 101t-4 71q-10 167 -10 246q0 32 2 36q6 6 19 9z" />
    <glyph glyph-name="L" unicode="L" horiz-adv-x="823" 
d="M542 312q-1 2 -139 6l-137 3l-24 -45q-92 -165 -95 -177q-1 -4 -1 -7q0 -2 0.5 -4t0.5 -4l2 -18l261 3q40 1 81.5 1.5t72.5 1t56 1t38 0.5h14l-31 59q-31 59 -64 118.5t-35 61.5zM456 470q-49 86 -54 89q-5 0 -20 -27q-84 -154 -84 -160q0 -1 17 -1q24 0 70 1.5t83 3.5
t37 3q0 4 -49 91zM380 666q8 2 20 2q13 0 20 -4q7 -3 33 -51q27 -50 80 -142l54 -94l39 2q39 0 57 6q17 5 30 -1q14 -6 14 -20q0 -15 -10 -36q-9 -20 -16 -20q-3 0 -5 1q-3 0 -9.5 1t-17 2t-16.5 2l-31 3l6 -11q1 -1 5.5 -9.5t11 -19.5t12.5 -20q111 -185 111 -205
q0 -13 -8 -34t-15 -26q-3 -2 -29 -2h-9q-65 0 -307 -5t-258 -7l-24 -2l-21 21q-17 18 -30.5 42t-13.5 36q0 10 9.5 19t19.5 9q9 0 15 6q5 6 52 106t47 104q0 1 -29 2t-61.5 4t-39.5 10q-9 9 -9 14q0 16 86 17h36q31 0 44 14.5t46 83.5q11 23 17 36q54 112 68.5 138t25.5 28z
" />
    <glyph glyph-name="L" unicode="l" horiz-adv-x="823" 
d="M542 312q-1 2 -139 6l-137 3l-24 -45q-92 -165 -95 -177q-1 -4 -1 -7q0 -2 0.5 -4t0.5 -4l2 -18l261 3q40 1 81.5 1.5t72.5 1t56 1t38 0.5h14l-31 59q-31 59 -64 118.5t-35 61.5zM456 470q-49 86 -54 89q-5 0 -20 -27q-84 -154 -84 -160q0 -1 17 -1q24 0 70 1.5t83 3.5
t37 3q0 4 -49 91zM380 666q8 2 20 2q13 0 20 -4q7 -3 33 -51q27 -50 80 -142l54 -94l39 2q39 0 57 6q17 5 30 -1q14 -6 14 -20q0 -15 -10 -36q-9 -20 -16 -20q-3 0 -5 1q-3 0 -9.5 1t-17 2t-16.5 2l-31 3l6 -11q1 -1 5.5 -9.5t11 -19.5t12.5 -20q111 -185 111 -205
q0 -13 -8 -34t-15 -26q-3 -2 -29 -2h-9q-65 0 -307 -5t-258 -7l-24 -2l-21 21q-17 18 -30.5 42t-13.5 36q0 10 9.5 19t19.5 9q9 0 15 6q5 6 52 106t47 104q0 1 -29 2t-61.5 4t-39.5 10q-9 9 -9 14q0 16 86 17h36q31 0 44 14.5t46 83.5q11 23 17 36q54 112 68.5 138t25.5 28z
" />
    <glyph glyph-name="M" unicode="M" horiz-adv-x="571" 
d="M66 641q11 0 29 -18q14 -15 172 -204t172 -204q7 -8 18.5 -20t18.5 -20t10 -11q12 -14 19 -17q11 -4 11 -17q0 -11 -7 -31q-15 -44 -28 -44q-9 0 -22.5 15.5t-38.5 53.5q-45 68 -240 330q-123 166 -123 179q0 8 9 8z" />
    <glyph glyph-name="M" unicode="m" horiz-adv-x="571" 
d="M66 641q11 0 29 -18q14 -15 172 -204t172 -204q7 -8 18.5 -20t18.5 -20t10 -11q12 -14 19 -17q11 -4 11 -17q0 -11 -7 -31q-15 -44 -28 -44q-9 0 -22.5 15.5t-38.5 53.5q-45 68 -240 330q-123 166 -123 179q0 8 9 8z" />
    <glyph glyph-name="N" unicode="N" horiz-adv-x="739" 
d="M56 640q10 12 20 1q3 -4 9 -111.5t6 -152.5q0 -4 40.5 -5t219.5 -1q261 0 265 -3t4 -11q0 -13 -9 -32q-8 -17 -15 -17q-4 0 -7 1q-20 5 -297 22q-146 10 -161 12l-36 3v-18q0 -31 5 -111t9 -100q3 -15 3 -23q0 -12 -7 -27q-9 -22 -14 -25q-1 -1 -5 -1q-17 0 -29 25
q-5 11 -6 54t-1 238q0 276 6 282zM623 614q3 5 10 5q14 0 17 -10q2 -13 11 -146q11 -172 19 -251q8 -104 8 -119v-5l-1 -3q-4 -15 -12 -23q-8 -10 -17 -4q-16 10 -21 34t-6 103q-2 118 -7 257q-2 47 -2 121q0 40 1 41z" />
    <glyph glyph-name="N" unicode="n" horiz-adv-x="739" 
d="M56 640q10 12 20 1q3 -4 9 -111.5t6 -152.5q0 -4 40.5 -5t219.5 -1q261 0 265 -3t4 -11q0 -13 -9 -32q-8 -17 -15 -17q-4 0 -7 1q-20 5 -297 22q-146 10 -161 12l-36 3v-18q0 -31 5 -111t9 -100q3 -15 3 -23q0 -12 -7 -27q-9 -22 -14 -25q-1 -1 -5 -1q-17 0 -29 25
q-5 11 -6 54t-1 238q0 276 6 282zM623 614q3 5 10 5q14 0 17 -10q2 -13 11 -146q11 -172 19 -251q8 -104 8 -119v-5l-1 -3q-4 -15 -12 -23q-8 -10 -17 -4q-16 10 -21 34t-6 103q-2 118 -7 257q-2 47 -2 121q0 40 1 41z" />
    <glyph glyph-name="O" unicode="O" horiz-adv-x="678" 
d="M309 650q4 7 10 5t8 -10q1 -8 7 -80q11 -170 22 -197q5 -18 5 -26q0 -10 20.5 -33.5t97.5 -102.5q116 -119 131 -128q13 -6 13 -20q0 -8 -1 -14t-2.5 -9t-5 -9.5t-5.5 -10.5q-7 -15 -17 -15q-13 0 -31 29q-14 23 -111 142t-103 121q-1 1 -6.5 -4.5t-11.5 -13.5
q-30 -41 -147 -176q-38 -43 -58 -74q-16 -24 -26 -24q-7 0 -16 10q-27 31 -27 54q0 8 22 26q14 11 120.5 112.5t108.5 105.5q1 1 -6 16q-5 10 -5 17t3 19q4 16 6 153q2 134 5 137z" />
    <glyph glyph-name="O" unicode="o" horiz-adv-x="678" 
d="M309 650q4 7 10 5t8 -10q1 -8 7 -80q11 -170 22 -197q5 -18 5 -26q0 -10 20.5 -33.5t97.5 -102.5q116 -119 131 -128q13 -6 13 -20q0 -8 -1 -14t-2.5 -9t-5 -9.5t-5.5 -10.5q-7 -15 -17 -15q-13 0 -31 29q-14 23 -111 142t-103 121q-1 1 -6.5 -4.5t-11.5 -13.5
q-30 -41 -147 -176q-38 -43 -58 -74q-16 -24 -26 -24q-7 0 -16 10q-27 31 -27 54q0 8 22 26q14 11 120.5 112.5t108.5 105.5q1 1 -6 16q-5 10 -5 17t3 19q4 16 6 153q2 134 5 137z" />
    <glyph glyph-name="P" unicode="P" horiz-adv-x="632" 
d="M480 634q30 2 39 2h7q7 0 10.5 -3.5t6.5 -22t4 -45t3 -84.5q6 -164 11 -204q8 -64 8 -99q0 -38 4 -68q8 -56 8 -76q0 -21 -8 -43q-7 -18 -17 -31t-17 -13q-1 0 -3 1q-4 3 -113 3q-247 0 -273 -6q-10 -2 -13 -2q-9 0 -20 8q-15 10 -29.5 36t-14.5 43q0 1 0.5 2.5t0.5 2.5
q2 8 6.5 11.5t29 6t62 3.5t119.5 1l191 1v187q0 197 -3 251l-3 65l-45 -3q-94 -4 -162 -7q-118 -6 -125 -7l-10 -2v-216l44 -3q34 -3 93 -5q31 -2 42 -4.5t11 -9.5q0 -6 -4 -13q-5 -11 -36 -14q-30 -2 -58 -11q-25 -8 -79 -18q-40 -6 -43 -6q-13 0 -19.5 6t-17.5 25l-12 22
l-2 148q0 145 2 161q2 15 10 18q4 2 105 5t204 5t106 2z" />
    <glyph glyph-name="P" unicode="p" horiz-adv-x="632" 
d="M480 634q30 2 39 2h7q7 0 10.5 -3.5t6.5 -22t4 -45t3 -84.5q6 -164 11 -204q8 -64 8 -99q0 -38 4 -68q8 -56 8 -76q0 -21 -8 -43q-7 -18 -17 -31t-17 -13q-1 0 -3 1q-4 3 -113 3q-247 0 -273 -6q-10 -2 -13 -2q-9 0 -20 8q-15 10 -29.5 36t-14.5 43q0 1 0.5 2.5t0.5 2.5
q2 8 6.5 11.5t29 6t62 3.5t119.5 1l191 1v187q0 197 -3 251l-3 65l-45 -3q-94 -4 -162 -7q-118 -6 -125 -7l-10 -2v-216l44 -3q34 -3 93 -5q31 -2 42 -4.5t11 -9.5q0 -6 -4 -13q-5 -11 -36 -14q-30 -2 -58 -11q-25 -8 -79 -18q-40 -6 -43 -6q-13 0 -19.5 6t-17.5 25l-12 22
l-2 148q0 145 2 161q2 15 10 18q4 2 105 5t204 5t106 2z" />
    <glyph glyph-name="Q" unicode="Q" horiz-adv-x="716" 
d="M59 603q2 2 9 2q6 0 19.5 -2t16.5 -2q10 0 12.5 -2t2.5 -12q0 -13 -9 -16q-9 -2 -9 -4q20 -44 44 -96q68 -148 112 -246l68 -152l40 71q63 108 214 384q11 20 8 29q0 1 -0.5 2.5t-0.5 2.5q0 12 11.5 18.5t27.5 6.5q14 0 23 -4q13 -5 13 -17q0 -26 -101 -198
q-194 -329 -220 -385q-6 -12 -10 -16t-9 -3q-14 2 -42 62.5t-123 298.5q-100 251 -100 270q0 5 3 8zM336 464q17 5 19 5q3 0 15 -5q11 -5 11 -21q0 -14 -9 -32q-12 -22 -21 -22q-5 0 -8 1q-20 5 -22 48v8q0 9 3 12t12 6z" />
    <glyph glyph-name="Q" unicode="q" horiz-adv-x="716" 
d="M59 603q2 2 9 2q6 0 19.5 -2t16.5 -2q10 0 12.5 -2t2.5 -12q0 -13 -9 -16q-9 -2 -9 -4q20 -44 44 -96q68 -148 112 -246l68 -152l40 71q63 108 214 384q11 20 8 29q0 1 -0.5 2.5t-0.5 2.5q0 12 11.5 18.5t27.5 6.5q14 0 23 -4q13 -5 13 -17q0 -26 -101 -198
q-194 -329 -220 -385q-6 -12 -10 -16t-9 -3q-14 2 -42 62.5t-123 298.5q-100 251 -100 270q0 5 3 8zM336 464q17 5 19 5q3 0 15 -5q11 -5 11 -21q0 -14 -9 -32q-12 -22 -21 -22q-5 0 -8 1q-20 5 -22 48v8q0 9 3 12t12 6z" />
    <glyph glyph-name="R" unicode="R" horiz-adv-x="746" 
d="M639 176q0 143 -4 231l-3 81l-40 -37q-12 -11 -55.5 -51.5t-60.5 -56.5q-60 -58 -209 -192l-135 -122l78 -4q210 -9 354 -9q70 0 72 3q3 4 3 157zM160 526q-9 2 -13 13q0 1 -1 2q-3 7 -5 3q-1 -1 -2 -5q-1 -3 -2 -4q-7 -13 -8 -237l-2 -224l40 40l368 380l43 45l-65 -3
q-236 -11 -332 -11q-20 0 -21 1zM642 596q20 4 22 4q6 0 16 -4q6 -4 7.5 -21t1.5 -91q0 -33 5 -303q3 -116 3 -153q0 -43 -8 -61l-9 -19l-31 3q-118 10 -421 14q-136 2 -143 7q-4 4 -14 22q-6 11 -7.5 50t-3.5 227q-3 260 -8 274q-4 14 0 22q5 9 12 12.5t26 6.5q2 0 5 0.5
t5 0.5q17 0 29.5 -6t12.5 -14t7 -5q12 5 343 24q141 8 150 10z" />
    <glyph glyph-name="R" unicode="r" horiz-adv-x="746" 
d="M639 176q0 143 -4 231l-3 81l-40 -37q-12 -11 -55.5 -51.5t-60.5 -56.5q-60 -58 -209 -192l-135 -122l78 -4q210 -9 354 -9q70 0 72 3q3 4 3 157zM160 526q-9 2 -13 13q0 1 -1 2q-3 7 -5 3q-1 -1 -2 -5q-1 -3 -2 -4q-7 -13 -8 -237l-2 -224l40 40l368 380l43 45l-65 -3
q-236 -11 -332 -11q-20 0 -21 1zM642 596q20 4 22 4q6 0 16 -4q6 -4 7.5 -21t1.5 -91q0 -33 5 -303q3 -116 3 -153q0 -43 -8 -61l-9 -19l-31 3q-118 10 -421 14q-136 2 -143 7q-4 4 -14 22q-6 11 -7.5 50t-3.5 227q-3 260 -8 274q-4 14 0 22q5 9 12 12.5t26 6.5q2 0 5 0.5
t5 0.5q17 0 29.5 -6t12.5 -14t7 -5q12 5 343 24q141 8 150 10z" />
    <glyph glyph-name="S" unicode="S" horiz-adv-x="710" 
d="M481 648q4 4 9 4q19 0 53 -30t59 -69q31 -50 42.5 -97.5t11.5 -126.5q0 -64 -6.5 -98t-31.5 -93q-27 -70 -70 -111q-17 -17 -23 -17q-2 0 -8 2q-8 4 -21.5 25t-13.5 30q0 4 15 21q44 50 72 124.5t28 154.5q0 54 -12 98q-10 42 -25.5 69t-45.5 59q-36 36 -36 49q0 3 3 6z
M140 618q10 6 27 6q11 0 13.5 -1.5t2.5 -9.5q0 -12 -13 -21q-54 -39 -54 -202q0 -108 20 -185q8 -30 24 -61.5t28 -41.5q14 -13 14 -32q0 -21 -5 -23q-4 -2 -4 -11t-10 -20.5t-18 -11.5q-23 0 -55 61.5t-46 133.5q-11 55 -11 144q0 33 4 71q22 170 83 204z" />
    <glyph glyph-name="S" unicode="s" horiz-adv-x="710" 
d="M481 648q4 4 9 4q19 0 53 -30t59 -69q31 -50 42.5 -97.5t11.5 -126.5q0 -64 -6.5 -98t-31.5 -93q-27 -70 -70 -111q-17 -17 -23 -17q-2 0 -8 2q-8 4 -21.5 25t-13.5 30q0 4 15 21q44 50 72 124.5t28 154.5q0 54 -12 98q-10 42 -25.5 69t-45.5 59q-36 36 -36 49q0 3 3 6z
M140 618q10 6 27 6q11 0 13.5 -1.5t2.5 -9.5q0 -12 -13 -21q-54 -39 -54 -202q0 -108 20 -185q8 -30 24 -61.5t28 -41.5q14 -13 14 -32q0 -21 -5 -23q-4 -2 -4 -11t-10 -20.5t-18 -11.5q-23 0 -55 61.5t-46 133.5q-11 55 -11 144q0 33 4 71q22 170 83 204z" />
    <glyph glyph-name="T" unicode="T" horiz-adv-x="650" 
d="M493 571q0 3 -2 3t-2 -3q0 -2 2 -2t2 2zM482 628q10 4 26 4q18 0 33 -15t15 -30q0 -13 -10 -34q-15 -33 -49 -33h-7q-16 1 -27 17q-10 16 -10 37q0 42 29 54zM73 620q13 3 26 3q23 0 36 -9q14 -9 14 -26q0 -39 -25 -59q-12 -9 -22 -9t-23 6q-28 12 -28 45q0 7 1 11
q5 35 21 38zM510 154q14 4 22 4q22 0 44 -14q15 -10 18 -15t3 -19q0 -22 -11 -42t-25 -26q-15 -6 -25 -6q-15 0 -31 16q-29 27 -29 49q0 1 0.5 2.5t0.5 2.5q3 11 14.5 28t18.5 20zM78 122q5 21 43 21q19 0 37.5 -6t23.5 -13q2 -4 2 -12q0 -32 -17 -66q-11 -25 -19 -32
t-25 -9h-6q-31 0 -52 37q-10 20 -10 30q0 12 10 25q11 13 13 25z" />
    <glyph glyph-name="T" unicode="t" horiz-adv-x="650" 
d="M493 571q0 3 -2 3t-2 -3q0 -2 2 -2t2 2zM482 628q10 4 26 4q18 0 33 -15t15 -30q0 -13 -10 -34q-15 -33 -49 -33h-7q-16 1 -27 17q-10 16 -10 37q0 42 29 54zM73 620q13 3 26 3q23 0 36 -9q14 -9 14 -26q0 -39 -25 -59q-12 -9 -22 -9t-23 6q-28 12 -28 45q0 7 1 11
q5 35 21 38zM510 154q14 4 22 4q22 0 44 -14q15 -10 18 -15t3 -19q0 -22 -11 -42t-25 -26q-15 -6 -25 -6q-15 0 -31 16q-29 27 -29 49q0 1 0.5 2.5t0.5 2.5q3 11 14.5 28t18.5 20zM78 122q5 21 43 21q19 0 37.5 -6t23.5 -13q2 -4 2 -12q0 -32 -17 -66q-11 -25 -19 -32
t-25 -9h-6q-31 0 -52 37q-10 20 -10 30q0 12 10 25q11 13 13 25z" />
    <glyph glyph-name="U" unicode="U" horiz-adv-x="615" 
d="M503 587q5 1 11.5 2t10 1.5t5.5 0.5q4 0 16 -5q11 -5 11 -15t-9 -28q-8 -18 -16 -18q-1 0 -3 0.5t-3 0.5q-22 6 -280 11q-170 4 -184 10q-7 3 -7 13t15 11q5 1 214 7q199 5 219 9zM483 393q42 3 58 3h3q17 0 17 -16q0 -1 -0.5 -3.5t-0.5 -4.5q-3 -20 -12 -24
q-12 -5 -96 -5q-12 0 -225 -3l-129 -3l-13 11q-11 9 -11 16q0 9 18 12q19 2 197.5 9t193.5 8zM302 238q8 5 27 5q23 0 33 -7q9 -7 9 -18q0 -9 -8 -30q-10 -25 -28 -25q-7 0 -19 5q-30 13 -30 42q0 19 16 28z" />
    <glyph glyph-name="U" unicode="u" horiz-adv-x="615" 
d="M503 587q5 1 11.5 2t10 1.5t5.5 0.5q4 0 16 -5q11 -5 11 -15t-9 -28q-8 -18 -16 -18q-1 0 -3 0.5t-3 0.5q-22 6 -280 11q-170 4 -184 10q-7 3 -7 13t15 11q5 1 214 7q199 5 219 9zM483 393q42 3 58 3h3q17 0 17 -16q0 -1 -0.5 -3.5t-0.5 -4.5q-3 -20 -12 -24
q-12 -5 -96 -5q-12 0 -225 -3l-129 -3l-13 11q-11 9 -11 16q0 9 18 12q19 2 197.5 9t193.5 8zM302 238q8 5 27 5q23 0 33 -7q9 -7 9 -18q0 -9 -8 -30q-10 -25 -28 -25q-7 0 -19 5q-30 13 -30 42q0 19 16 28z" />
    <glyph glyph-name="V" unicode="V" horiz-adv-x="806" 
d="M684 591q20 5 30 5q12 0 24 -6q15 -7 16 -27q0 -113 -1 -227l-2 -208l-11 -23q-6 -13 -9.5 -17t-10.5 -4q-1 0 -4.5 0.5t-5.5 0.5q-22 2 -112 2q-103 0 -333 -4q-116 -2 -125 -2q-47 0 -54 4q-11 7 -23 30l-12 24l9 137q11 169 12 198q4 58 8 76q6 18 18 18q7 0 13 -8
q8 -12 10 -140q1 -39 3.5 -110t2.5 -85l3 -66l74 -3h54q139 0 215 1l194 2v27q0 17 -4 139q-5 111 -5 190q0 54 4 61q6 10 22 15z" />
    <glyph glyph-name="V" unicode="v" horiz-adv-x="806" 
d="M684 591q20 5 30 5q12 0 24 -6q15 -7 16 -27q0 -113 -1 -227l-2 -208l-11 -23q-6 -13 -9.5 -17t-10.5 -4q-1 0 -4.5 0.5t-5.5 0.5q-22 2 -112 2q-103 0 -333 -4q-116 -2 -125 -2q-47 0 -54 4q-11 7 -23 30l-12 24l9 137q11 169 12 198q4 58 8 76q6 18 18 18q7 0 13 -8
q8 -12 10 -140q1 -39 3.5 -110t2.5 -85l3 -66l74 -3h54q139 0 215 1l194 2v27q0 17 -4 139q-5 111 -5 190q0 54 4 61q6 10 22 15z" />
    <glyph glyph-name="W" unicode="W" horiz-adv-x="623" 
d="M496 611q10 3 19 3q16 0 24 -8q7 -7 13 -89q12 -181 17 -304q2 -64 2 -72q0 -37 -7 -51l-8 -17l-39 -3q-147 -11 -357 -11h-19q-77 1 -83 9q-3 3 -3 7q0 9 41 14.5t192 17.5q34 3 84.5 7t77.5 6.5t34 3.5l29 3l-2 16q-5 22 -15 146t-11 133q-6 88 -7 113q-1 18 -1 42
q0 19 3.5 25t15.5 9zM261 359q15 6 27 6q29 0 29 -32q0 -17 -9.5 -37.5t-19.5 -24.5q-3 -1 -10 -1q-26 0 -38 20q-8 12 -8 27q0 30 29 42z" />
    <glyph glyph-name="W" unicode="w" horiz-adv-x="623" 
d="M496 611q10 3 19 3q16 0 24 -8q7 -7 13 -89q12 -181 17 -304q2 -64 2 -72q0 -37 -7 -51l-8 -17l-39 -3q-147 -11 -357 -11h-19q-77 1 -83 9q-3 3 -3 7q0 9 41 14.5t192 17.5q34 3 84.5 7t77.5 6.5t34 3.5l29 3l-2 16q-5 22 -15 146t-11 133q-6 88 -7 113q-1 18 -1 42
q0 19 3.5 25t15.5 9zM261 359q15 6 27 6q29 0 29 -32q0 -17 -9.5 -37.5t-19.5 -24.5q-3 -1 -10 -1q-26 0 -38 20q-8 12 -8 27q0 30 29 42z" />
    <glyph glyph-name="X" unicode="X" horiz-adv-x="555" 
d="M225 584q23 13 36 13q9 0 15 -2q10 -3 10 -13q0 -12 -14 -20q-51 -28 -102 -76t-51 -67q0 -3 2 -5h1q14 0 52 11q28 8 80 21q50 12 138 12q19 0 27 -2q11 -2 11 -12q0 -9 -1 -16q-2 -24 -12.5 -38t-47.5 -42q-34 -25 -72 -59t-38 -39q0 -1 2.5 -1t7 1t9.5 3q83 30 134 36
q5 1 15 1q39 0 48 -17q5 -10 5 -21q0 -37 -40 -79q-21 -22 -27 -33q-2 -6 -2 -7q0 -10 45 -33q24 -12 34 -22t10 -22q0 -14 -10 -34q-6 -14 -16 -14q-11 0 -51 28q-68 47 -68 90q0 35 47 82q28 26 28 31q0 2 -6 2q-38 0 -146 -44q-28 -10 -40 -10q-21 0 -33 23q-8 15 -8 30
q0 17 8 33q10 22 25.5 39.5t47.5 43.5l38 33h-1q-22 0 -136 -35q-37 -13 -55 -13q-30 0 -49.5 21t-19.5 52q0 21 10 41q13 27 57 62.5t103 66.5z" />
    <glyph glyph-name="X" unicode="x" horiz-adv-x="555" 
d="M225 584q23 13 36 13q9 0 15 -2q10 -3 10 -13q0 -12 -14 -20q-51 -28 -102 -76t-51 -67q0 -3 2 -5h1q14 0 52 11q28 8 80 21q50 12 138 12q19 0 27 -2q11 -2 11 -12q0 -9 -1 -16q-2 -24 -12.5 -38t-47.5 -42q-34 -25 -72 -59t-38 -39q0 -1 2.5 -1t7 1t9.5 3q83 30 134 36
q5 1 15 1q39 0 48 -17q5 -10 5 -21q0 -37 -40 -79q-21 -22 -27 -33q-2 -6 -2 -7q0 -10 45 -33q24 -12 34 -22t10 -22q0 -14 -10 -34q-6 -14 -16 -14q-11 0 -51 28q-68 47 -68 90q0 35 47 82q28 26 28 31q0 2 -6 2q-38 0 -146 -44q-28 -10 -40 -10q-21 0 -33 23q-8 15 -8 30
q0 17 8 33q10 22 25.5 39.5t47.5 43.5l38 33h-1q-22 0 -136 -35q-37 -13 -55 -13q-30 0 -49.5 21t-19.5 52q0 21 10 41q13 27 57 62.5t103 66.5z" />
    <glyph glyph-name="Y" unicode="Y" horiz-adv-x="567" 
d="M95 557q3 4 9 4q30 0 230 -117q120 -68 139 -78q23 -12 31 -19t8 -15q0 -4 -9 -26q-6 -12 -22 -23t-76 -46q-296 -172 -304 -182q-3 -4 -16 0q-9 3 -20 20.5t-11 28.5q0 4 1 5q3 5 121 73q246 140 246 145q0 3 -93 61q-222 138 -231 155q-5 9 -3 14z" />
    <glyph glyph-name="Y" unicode="y" horiz-adv-x="567" 
d="M95 557q3 4 9 4q30 0 230 -117q120 -68 139 -78q23 -12 31 -19t8 -15q0 -4 -9 -26q-6 -12 -22 -23t-76 -46q-296 -172 -304 -182q-3 -4 -16 0q-9 3 -20 20.5t-11 28.5q0 4 1 5q3 5 121 73q246 140 246 145q0 3 -93 61q-222 138 -231 155q-5 9 -3 14z" />
    <glyph glyph-name="Z" unicode="Z" horiz-adv-x="599" 
d="M418 336q0 15 19 23t46 8q29 0 47 -8q11 -6 13.5 -10.5t2.5 -20.5q0 -22 -10.5 -45t-23.5 -28q-6 -3 -17 -3q-24 0 -40 11q-10 7 -23.5 33.5t-13.5 39.5zM53 311q0 16 16 25t37 9q13 0 31 -8.5t21 -16.5q2 -5 2 -18q0 -26 -9 -45q-10 -21 -25 -23q-3 -1 -8 -1
q-11 0 -34 19q-8 6 -19.5 28t-11.5 31z" />
    <glyph glyph-name="Z" unicode="z" horiz-adv-x="599" 
d="M418 336q0 15 19 23t46 8q29 0 47 -8q11 -6 13.5 -10.5t2.5 -20.5q0 -22 -10.5 -45t-23.5 -28q-6 -3 -17 -3q-24 0 -40 11q-10 7 -23.5 33.5t-13.5 39.5zM53 311q0 16 16 25t37 9q13 0 31 -8.5t21 -16.5q2 -5 2 -18q0 -26 -9 -45q-10 -21 -25 -23q-3 -1 -8 -1
q-11 0 -34 19q-8 6 -19.5 28t-11.5 31z" />
    <glyph glyph-name="nbsp" unicode="&#xa0;" 
 />
  </font>
</defs>
</svg>
