<?xml version="1.0" standalone="no"?>
<!DOCTYPE svg PUBLIC "-//W3C//DTD SVG 1.1//EN" "http://www.w3.org/Graphics/SVG/1.1/DTD/svg11.dtd" >
<svg xmlns="http://www.w3.org/2000/svg" xmlns:xlink="http://www.w3.org/1999/xlink" version="1.1">
<metadata>
Created by FontForge 20170731 at Tue Sep 20 17:40:06 2022
 By Aleksey,,,
</metadata>
<defs>
<font id="Demxn-Regular" horiz-adv-x="250" >
  <font-face 
    font-family="Demxn"
    font-weight="400"
    font-stretch="normal"
    units-per-em="1000"
    panose-1="2 0 5 3 0 0 0 0 0 0"
    ascent="800"
    descent="-200"
    cap-height="615"
    bbox="33 -200 941 799.4"
    underline-thickness="50"
    underline-position="-150"
    unicode-range="U+000D-00A0"
  />
<missing-glyph horiz-adv-x="364" 
d="M33 0v666h265v-666h-265zM66 33h199v600h-199v-600z" />
    <glyph glyph-name=".notdef" horiz-adv-x="364" 
d="M33 0v666h265v-666h-265zM66 33h199v600h-199v-600z" />
    <glyph glyph-name=".null" 
 />
    <glyph glyph-name=".null" 
 />
    <glyph glyph-name="nonmarkingreturn" horiz-adv-x="333" 
 />
    <glyph glyph-name="CR" unicode="&#xd;" 
 />
    <glyph glyph-name="space" unicode=" " 
 />
    <glyph glyph-name="A" unicode="A" horiz-adv-x="648" 
d="M475 468q-16 3 -134 11t-154 8q-11 0 -11 -1q0 -2 93 -218q34 -80 40 -83q5 0 91 140q80 130 80 139q0 4 -5 4zM56 500v12t1 8t1 5.5t3.5 2.5t5 2t8.5 1t11 2q38 4 40 4q12 0 16 -4q3 -3 72 -3q46 0 165 2t156 2q43 0 49 -2q8 -5 8 -17q0 -15 -13 -41q-8 -15 -109 -185.5
t-148 -246.5q-10 -15 -17 -15q-13 0 -36.5 40t-84.5 164q-81 165 -108 212q-20 34 -20 57z" />
    <glyph glyph-name="A" unicode="a" horiz-adv-x="648" 
d="M475 468q-16 3 -134 11t-154 8q-11 0 -11 -1q0 -2 93 -218q34 -80 40 -83q5 0 91 140q80 130 80 139q0 4 -5 4zM56 500v12t1 8t1 5.5t3.5 2.5t5 2t8.5 1t11 2q38 4 40 4q12 0 16 -4q3 -3 72 -3q46 0 165 2t156 2q43 0 49 -2q8 -5 8 -17q0 -15 -13 -41q-8 -15 -109 -185.5
t-148 -246.5q-10 -15 -17 -15q-13 0 -36.5 40t-84.5 164q-81 165 -108 212q-20 34 -20 57z" />
    <glyph glyph-name="B" unicode="B" horiz-adv-x="759" 
d="M651 392q1 2 5.5 13t9 20.5t9.5 20.5t10.5 17.5t9.5 6.5q9 0 9 -7q0 -8 -17.5 -55.5t-26.5 -65.5q-43 -78 -131 -78q-57 0 -110 37q-11 8 -77 51q-29 23 -80 23q-20 0 -47 -5q-50 -10 -92 -96q-23 -45 -26 -47q-1 -1 -4 -1q-16 0 -31 29q-9 18 -9 30q0 11 9 23
q9 11 20 36q12 26 43 55t55 36q22 7 76 7q44 0 65 -6q35 -11 111 -67q59 -43 110 -43q2 0 7 0.5t7 0.5q28 2 36 7q18 10 35.5 27t23.5 31z" />
    <glyph glyph-name="B" unicode="b" horiz-adv-x="759" 
d="M651 392q1 2 5.5 13t9 20.5t9.5 20.5t10.5 17.5t9.5 6.5q9 0 9 -7q0 -8 -17.5 -55.5t-26.5 -65.5q-43 -78 -131 -78q-57 0 -110 37q-11 8 -77 51q-29 23 -80 23q-20 0 -47 -5q-50 -10 -92 -96q-23 -45 -26 -47q-1 -1 -4 -1q-16 0 -31 29q-9 18 -9 30q0 11 9 23
q9 11 20 36q12 26 43 55t55 36q22 7 76 7q44 0 65 -6q35 -11 111 -67q59 -43 110 -43q2 0 7 0.5t7 0.5q28 2 36 7q18 10 35.5 27t23.5 31z" />
    <glyph glyph-name="C" unicode="C" horiz-adv-x="743" 
d="M73 300q5 0 120 7t120 7q2 0 2 2q0 5 -23 32q-40 49 -84.5 110.5t-44.5 67.5q0 8 15 8q10 0 25 -13.5t71 -70.5l82 -84l1 18q2 194 12 206q15 18 23 -4q4 -8 8 -110q2 -92 5 -105q0 -1 1 -1q9 0 74 75q90 102 102 102q4 0 4 -10q0 -7 -37 -60.5t-74.5 -104.5t-37.5 -52
q3 -1 8 -1q27 0 158 8q24 2 54 2q21 0 24 -2q8 -5 8 -19q0 -17 -9.5 -33.5t-20.5 -16.5h-1q-2 0 -112 4l-101 3l34 -40q98 -116 98 -135q0 -12 -7 -27t-12 -15q-6 0 -38.5 33t-71.5 79l-40 47l-2 -101q-1 -78 -5.5 -99.5t-17.5 -21.5q-9 0 -17 15q-7 11 -8.5 28.5t-1.5 84.5
v98l-54 -71q-52 -69 -67 -87t-23 -18q-3 0 -5 1q-10 3 -20.5 18t-10.5 27q0 10 11.5 25.5t68.5 81.5l64 76l-15 2q-27 3 -127 5q-112 3 -118 9q-5 5 -5 10q0 10 18 10z" />
    <glyph glyph-name="C" unicode="c" horiz-adv-x="743" 
d="M73 300q5 0 120 7t120 7q2 0 2 2q0 5 -23 32q-40 49 -84.5 110.5t-44.5 67.5q0 8 15 8q10 0 25 -13.5t71 -70.5l82 -84l1 18q2 194 12 206q15 18 23 -4q4 -8 8 -110q2 -92 5 -105q0 -1 1 -1q9 0 74 75q90 102 102 102q4 0 4 -10q0 -7 -37 -60.5t-74.5 -104.5t-37.5 -52
q3 -1 8 -1q27 0 158 8q24 2 54 2q21 0 24 -2q8 -5 8 -19q0 -17 -9.5 -33.5t-20.5 -16.5h-1q-2 0 -112 4l-101 3l34 -40q98 -116 98 -135q0 -12 -7 -27t-12 -15q-6 0 -38.5 33t-71.5 79l-40 47l-2 -101q-1 -78 -5.5 -99.5t-17.5 -21.5q-9 0 -17 15q-7 11 -8.5 28.5t-1.5 84.5
v98l-54 -71q-52 -69 -67 -87t-23 -18q-3 0 -5 1q-10 3 -20.5 18t-10.5 27q0 10 11.5 25.5t68.5 81.5l64 76l-15 2q-27 3 -127 5q-112 3 -118 9q-5 5 -5 10q0 10 18 10z" />
    <glyph glyph-name="D" unicode="D" horiz-adv-x="705" 
d="M328 511q-52 8 -91 8q-3 0 -8.5 -0.5t-7.5 -0.5l-20 -2l27 -16q110 -65 110 -216q0 -72 -32 -146q-22 -50 -48 -81.5t-68 -58.5q-27 -17 -27 -21q0 -6 59 -9q9 -1 26 -1q130 0 220 90q87 86 87 211q0 62 -23 111q-22 46 -78.5 82.5t-125.5 49.5zM232 633q16 3 63 3h17
q47 -1 79 -9.5t77 -31.5q89 -45 136.5 -121t47.5 -174q0 -4 -0.5 -11.5t-0.5 -11.5q-4 -58 -15.5 -97t-43.5 -98q-26 -48 -68 -89t-90 -63q-42 -20 -72.5 -26.5t-76.5 -6.5q-50 0 -89 13q-106 36 -127 75q-6 12 2 15q9 3 5 14q-2 6 -2 8q0 11 33 25q46 19 82 62
q64 80 64 193q0 54 -10 79t-31 52t-41 39q-28 17 -39 17q-5 0 -13 -4q-6 -3 -10 -3q-5 0 -18 10q-5 4 -11.5 8.5t-7 5t-3.5 6t-4 9t-5 15.5q-4 18 -4 24q0 19 12 19l44 18q60 26 120 36z" />
    <glyph glyph-name="D" unicode="d" horiz-adv-x="705" 
d="M328 511q-52 8 -91 8q-3 0 -8.5 -0.5t-7.5 -0.5l-20 -2l27 -16q110 -65 110 -216q0 -72 -32 -146q-22 -50 -48 -81.5t-68 -58.5q-27 -17 -27 -21q0 -6 59 -9q9 -1 26 -1q130 0 220 90q87 86 87 211q0 62 -23 111q-22 46 -78.5 82.5t-125.5 49.5zM232 633q16 3 63 3h17
q47 -1 79 -9.5t77 -31.5q89 -45 136.5 -121t47.5 -174q0 -4 -0.5 -11.5t-0.5 -11.5q-4 -58 -15.5 -97t-43.5 -98q-26 -48 -68 -89t-90 -63q-42 -20 -72.5 -26.5t-76.5 -6.5q-50 0 -89 13q-106 36 -127 75q-6 12 2 15q9 3 5 14q-2 6 -2 8q0 11 33 25q46 19 82 62
q64 80 64 193q0 54 -10 79t-31 52t-41 39q-28 17 -39 17q-5 0 -13 -4q-6 -3 -10 -3q-5 0 -18 10q-5 4 -11.5 8.5t-7 5t-3.5 6t-4 9t-5 15.5q-4 18 -4 24q0 19 12 19l44 18q60 26 120 36z" />
    <glyph glyph-name="E" unicode="E" horiz-adv-x="695" 
d="M587 498v42l-230 -2q-231 -1 -232 -7q-1 -1 -1 -37q0 -88 4 -268t6 -182q6 -6 197 -16q112 -7 146 -10q68 -5 87 -5h4q2 2 6 125q13 309 13 360zM67 592q13 4 27 4q18 0 34 -9l17 -9l171 5q116 4 242 10q44 2 51 2q21 0 28.5 -3.5t7.5 -12.5q0 -6 -1 -10q-1 -13 -5 -308
q-2 -206 -4 -249.5t-9 -58.5q-1 -2 -2.5 -5.5t-2 -4.5t-2 -3t-3 -3t-4 -1.5t-5.5 -1t-8 -0.5q-10 0 -77 5q-350 26 -391 26q-15 0 -19 -1q-3 -1 -8 -1q-20 0 -37 37q-8 18 -10 39.5t-2 105.5q0 148 -3 277q-2 126 -2 144v16q2 6 17 10z" />
    <glyph glyph-name="E" unicode="e" horiz-adv-x="695" 
d="M587 498v42l-230 -2q-231 -1 -232 -7q-1 -1 -1 -37q0 -88 4 -268t6 -182q6 -6 197 -16q112 -7 146 -10q68 -5 87 -5h4q2 2 6 125q13 309 13 360zM67 592q13 4 27 4q18 0 34 -9l17 -9l171 5q116 4 242 10q44 2 51 2q21 0 28.5 -3.5t7.5 -12.5q0 -6 -1 -10q-1 -13 -5 -308
q-2 -206 -4 -249.5t-9 -58.5q-1 -2 -2.5 -5.5t-2 -4.5t-2 -3t-3 -3t-4 -1.5t-5.5 -1t-8 -0.5q-10 0 -77 5q-350 26 -391 26q-15 0 -19 -1q-3 -1 -8 -1q-20 0 -37 37q-8 18 -10 39.5t-2 105.5q0 148 -3 277q-2 126 -2 144v16q2 6 17 10z" />
    <glyph glyph-name="F" unicode="F" horiz-adv-x="701" 
d="M332 273q2 4 4 7t2.5 4.5t-0.5 1.5h-4q-3 -1 -9 -2l-12 -2q-43 -7 -65 -32q-9 -10 -9 -22q0 -8 5 -14.5t12 -6.5q2 0 8 2q11 5 36 28.5t32 35.5zM193 516q15 3 35 3q44 0 69 -13q83 -42 90 -102q1 -6 3 -19.5t2 -17.5l2 -17h26q71 0 153 -64q22 -17 35 -40t25 -67
q12 -43 12 -67q0 -3 -0.5 -9t-0.5 -10q-3 -68 -26 -68q-6 0 -11 4q-22 15 -29 79q-9 86 -22 111q-5 10 -30 28t-47 28q-20 10 -56 14l-32 3l-11 -26q-12 -28 -43 -59q-46 -46 -79 -46q-22 0 -40 20q-23 28 -23 68q0 31 34 56.5t85 35.5l30 6v16q0 43 -31 73q-43 39 -97 39
q-43 0 -88 -22q-27 -13 -36 -21t-9 -20q0 -16 -8 -16q-5 0 -11 8q-8 11 -8 22q0 10 7 22q12 17 53.5 38.5t76.5 29.5z" />
    <glyph glyph-name="F" unicode="f" horiz-adv-x="701" 
d="M332 273q2 4 4 7t2.5 4.5t-0.5 1.5h-4q-3 -1 -9 -2l-12 -2q-43 -7 -65 -32q-9 -10 -9 -22q0 -8 5 -14.5t12 -6.5q2 0 8 2q11 5 36 28.5t32 35.5zM193 516q15 3 35 3q44 0 69 -13q83 -42 90 -102q1 -6 3 -19.5t2 -17.5l2 -17h26q71 0 153 -64q22 -17 35 -40t25 -67
q12 -43 12 -67q0 -3 -0.5 -9t-0.5 -10q-3 -68 -26 -68q-6 0 -11 4q-22 15 -29 79q-9 86 -22 111q-5 10 -30 28t-47 28q-20 10 -56 14l-32 3l-11 -26q-12 -28 -43 -59q-46 -46 -79 -46q-22 0 -40 20q-23 28 -23 68q0 31 34 56.5t85 35.5l30 6v16q0 43 -31 73q-43 39 -97 39
q-43 0 -88 -22q-27 -13 -36 -21t-9 -20q0 -16 -8 -16q-5 0 -11 8q-8 11 -8 22q0 10 7 22q12 17 53.5 38.5t76.5 29.5z" />
    <glyph glyph-name="G" unicode="G" horiz-adv-x="748" 
d="M483 541q20 6 35 6q13 0 21 -5q7 -4 7 -19q0 -28 -12 -42l-9 -11l-139 1q-210 1 -221 12q-6 7 -6.5 15t6.5 11q15 4 152 14q153 13 166 18zM638 266q6 3 14 3q15 0 29 -7q13 -7 13 -20t-12 -37l-12 -24l-41 -4q-57 -3 -298 -6l-257 -3l-10 10q-9 9 -9 18q0 8 7 11
q21 7 396 39q164 14 180 20z" />
    <glyph glyph-name="G" unicode="g" horiz-adv-x="748" 
d="M483 541q20 6 35 6q13 0 21 -5q7 -4 7 -19q0 -28 -12 -42l-9 -11l-139 1q-210 1 -221 12q-6 7 -6.5 15t6.5 11q15 4 152 14q153 13 166 18zM638 266q6 3 14 3q15 0 29 -7q13 -7 13 -20t-12 -37l-12 -24l-41 -4q-57 -3 -298 -6l-257 -3l-10 10q-9 9 -9 18q0 8 7 11
q21 7 396 39q164 14 180 20z" />
    <glyph glyph-name="H" unicode="H" horiz-adv-x="703" 
d="M409 514q-38 6 -48 6q-73 -1 -139 -49t-83 -112q-7 -25 -7 -56q0 -106 82 -188q67 -67 157 -67q3 0 8 0.5t8 0.5q73 6 129 76.5t56 154.5q0 9 -2 29q-6 36 -15 49q-14 23 -14 39q0 10 4 17q3 6 3 10q0 5 -18 26q-46 49 -121 64zM257 582q39 11 87 11q34 0 66 -7
q46 -12 94.5 -48.5t74.5 -77.5q17 -25 27 -25t28 -8l17 -7v-75q0 -79 -10.5 -128t-39.5 -103q-34 -63 -103.5 -101t-144.5 -38q-51 0 -91 17q-90 36 -149.5 129.5t-59.5 193.5q0 39 8 68q19 76 69.5 127t126.5 72z" />
    <glyph glyph-name="H" unicode="h" horiz-adv-x="703" 
d="M409 514q-38 6 -48 6q-73 -1 -139 -49t-83 -112q-7 -25 -7 -56q0 -106 82 -188q67 -67 157 -67q3 0 8 0.5t8 0.5q73 6 129 76.5t56 154.5q0 9 -2 29q-6 36 -15 49q-14 23 -14 39q0 10 4 17q3 6 3 10q0 5 -18 26q-46 49 -121 64zM257 582q39 11 87 11q34 0 66 -7
q46 -12 94.5 -48.5t74.5 -77.5q17 -25 27 -25t28 -8l17 -7v-75q0 -79 -10.5 -128t-39.5 -103q-34 -63 -103.5 -101t-144.5 -38q-51 0 -91 17q-90 36 -149.5 129.5t-59.5 193.5q0 39 8 68q19 76 69.5 127t126.5 72z" />
    <glyph glyph-name="I" unicode="I" horiz-adv-x="685" 
d="M538 110q0 33 -4.5 219.5t-8.5 186.5q-1 0 -90 -59q-84 -56 -179 -113q-91 -55 -91 -57q0 -3 186 -101l185 -98zM566 611q5 4 17 4q16 0 30 -8l13 -8l-1 -45v-22q0 -43 4 -259l5 -237l-10 -29q-9 -28 -15 -34q-5 -6 -11 -6q-12 0 -53 24q-37 22 -203 115.5t-217 120.5
q-38 21 -54.5 38t-16.5 39q0 7 6 11.5t36 20.5q19 10 120 68q80 46 193 104q75 39 94 50.5t19 17.5q0 11 7.5 20.5t19.5 9.5q7 0 17 5z" />
    <glyph glyph-name="I" unicode="i" horiz-adv-x="685" 
d="M538 110q0 33 -4.5 219.5t-8.5 186.5q-1 0 -90 -59q-84 -56 -179 -113q-91 -55 -91 -57q0 -3 186 -101l185 -98zM566 611q5 4 17 4q16 0 30 -8l13 -8l-1 -45v-22q0 -43 4 -259l5 -237l-10 -29q-9 -28 -15 -34q-5 -6 -11 -6q-12 0 -53 24q-37 22 -203 115.5t-217 120.5
q-38 21 -54.5 38t-16.5 39q0 7 6 11.5t36 20.5q19 10 120 68q80 46 193 104q75 39 94 50.5t19 17.5q0 11 7.5 20.5t19.5 9.5q7 0 17 5z" />
    <glyph glyph-name="J" unicode="J" horiz-adv-x="948" 
d="M352 407q-15 9 -25 10.5t-43 1.5q-40 0 -60 -4t-47 -18q-81 -40 -88 -129q-1 -10 -1 -25q0 -14 4 -19q6 -4 7 6q0 13 5.5 17t31.5 10q16 3 23 3q8 0 22 -7q21 -10 39 -27q23 -20 38 -21q24 -5 31 -8q10 -2 11 -2q8 0 21 9q41 27 88 84l26 33l-8 12q-38 52 -75 74z
M751 438q-19 4 -40 4q-59 0 -92 -30q-12 -12 -47 -58l-34 -45l27 -24q28 -25 72 -46q76 -36 120 -36q19 0 26 3t21 16q21 19 27.5 33t6.5 38q0 28 -16 68q-16 39 -16 45q0 7 -19 18t-36 14zM642 551q27 8 60 8q31 0 55 -8q48 -14 82 -52q22 -25 27.5 -40t27.5 -117v-7
q0 -9 -2 -41q-7 -69 -50 -113q-23 -23 -36 -29.5t-38 -6.5h-20q-44 2 -109 24q-63 21 -106 51l-40 29l-21 -24q-30 -36 -71 -74t-60 -47q-18 -8 -32 -10t-55 -2h-62l-20 14q-13 9 -36 41.5t-28 48.5q-1 4 -9 -1q-6 -6 -16 1q-20 14 -27 74q-3 22 -3 35q0 16 7 41
q24 93 106 133q57 27 131 27q38 0 62 -9t54 -32.5t47 -46.5q18 -25 20 -25t27 41q47 77 87 99q19 9 48 18z" />
    <glyph glyph-name="J" unicode="j" horiz-adv-x="948" 
d="M352 407q-15 9 -25 10.5t-43 1.5q-40 0 -60 -4t-47 -18q-81 -40 -88 -129q-1 -10 -1 -25q0 -14 4 -19q6 -4 7 6q0 13 5.5 17t31.5 10q16 3 23 3q8 0 22 -7q21 -10 39 -27q23 -20 38 -21q24 -5 31 -8q10 -2 11 -2q8 0 21 9q41 27 88 84l26 33l-8 12q-38 52 -75 74z
M751 438q-19 4 -40 4q-59 0 -92 -30q-12 -12 -47 -58l-34 -45l27 -24q28 -25 72 -46q76 -36 120 -36q19 0 26 3t21 16q21 19 27.5 33t6.5 38q0 28 -16 68q-16 39 -16 45q0 7 -19 18t-36 14zM642 551q27 8 60 8q31 0 55 -8q48 -14 82 -52q22 -25 27.5 -40t27.5 -117v-7
q0 -9 -2 -41q-7 -69 -50 -113q-23 -23 -36 -29.5t-38 -6.5h-20q-44 2 -109 24q-63 21 -106 51l-40 29l-21 -24q-30 -36 -71 -74t-60 -47q-18 -8 -32 -10t-55 -2h-62l-20 14q-13 9 -36 41.5t-28 48.5q-1 4 -9 -1q-6 -6 -16 1q-20 14 -27 74q-3 22 -3 35q0 16 7 41
q24 93 106 133q57 27 131 27q38 0 62 -9t54 -32.5t47 -46.5q18 -25 20 -25t27 41q47 77 87 99q19 9 48 18z" />
    <glyph glyph-name="K" unicode="K" horiz-adv-x="918" 
d="M615 410l-2 23h-299l2 -16q3 -27 6 -117q2 -101 6 -105q1 -1 17 -1q22 0 132 5l148 9q1 2 -3.5 93.5t-6.5 108.5zM609 689q5 7 17 7q9 0 12 -5q1 -2 5.5 -46.5t9 -90.5t4.5 -48l2 -11l64 3q72 4 90 8q15 3 22 3q6 0 16 -5q12 -8 12 -20q0 -9 -15 -39q-8 -15 -20 -15
q-7 0 -14 4t-38 4q-24 0 -41 -1q-69 -4 -71 -6v-6q0 -66 11 -183l3 -31l52 3q56 4 73 7q11 3 25 3q8 0 11 -1q10 -1 12 -4t2 -13q0 -12 -8 -30l-8 -16l-78 2l-79 1l3 -15q3 -24 3 -29q0 -14 11 -27t11 -27q0 -10 -7 -29q-10 -25 -13 -31q-6 -15 -18 -15q-20 0 -39 36
q-14 27 -14 37q0 9 4 17q6 16 6 49v34l-17 -3q-10 -1 -130 -5t-130 -5l-22 -2l3 -28q3 -28 12 -34q8 -6 8 -18q0 -10 -10 -40q-17 -47 -33 -47q-7 0 -20 14t-23 33q-13 25 -13 39q0 9 6 15q7 7 7 37v29l-82 -2q-54 -2 -60 -2q-24 0 -28 4q-6 4 -7 13t4 12t89 8l84 5v245
l-93 -1h-43q-51 0 -61 6q-11 6 -11 16q0 7 8 10q6 2 82 7t101 5h17v72q0 70 4 84q1 9 4.5 11.5t14.5 2.5h15l4 -34q3 -29 5 -82l4 -49h19q11 0 79.5 3.5t132.5 7.5l64 4q-2 43 -4 95q-2 56 -2 64q0 30 4 36z" />
    <glyph glyph-name="K" unicode="k" horiz-adv-x="918" 
d="M615 410l-2 23h-299l2 -16q3 -27 6 -117q2 -101 6 -105q1 -1 17 -1q22 0 132 5l148 9q1 2 -3.5 93.5t-6.5 108.5zM609 689q5 7 17 7q9 0 12 -5q1 -2 5.5 -46.5t9 -90.5t4.5 -48l2 -11l64 3q72 4 90 8q15 3 22 3q6 0 16 -5q12 -8 12 -20q0 -9 -15 -39q-8 -15 -20 -15
q-7 0 -14 4t-38 4q-24 0 -41 -1q-69 -4 -71 -6v-6q0 -66 11 -183l3 -31l52 3q56 4 73 7q11 3 25 3q8 0 11 -1q10 -1 12 -4t2 -13q0 -12 -8 -30l-8 -16l-78 2l-79 1l3 -15q3 -24 3 -29q0 -14 11 -27t11 -27q0 -10 -7 -29q-10 -25 -13 -31q-6 -15 -18 -15q-20 0 -39 36
q-14 27 -14 37q0 9 4 17q6 16 6 49v34l-17 -3q-10 -1 -130 -5t-130 -5l-22 -2l3 -28q3 -28 12 -34q8 -6 8 -18q0 -10 -10 -40q-17 -47 -33 -47q-7 0 -20 14t-23 33q-13 25 -13 39q0 9 6 15q7 7 7 37v29l-82 -2q-54 -2 -60 -2q-24 0 -28 4q-6 4 -7 13t4 12t89 8l84 5v245
l-93 -1h-43q-51 0 -61 6q-11 6 -11 16q0 7 8 10q6 2 82 7t101 5h17v72q0 70 4 84q1 9 4.5 11.5t14.5 2.5h15l4 -34q3 -29 5 -82l4 -49h19q11 0 79.5 3.5t132.5 7.5l64 4q-2 43 -4 95q-2 56 -2 64q0 30 4 36z" />
    <glyph glyph-name="L" unicode="L" horiz-adv-x="707" 
d="M569 386q19 6 33 6q16 0 34 -9q12 -7 15 -11t3 -16q0 -27 -18 -58.5t-33 -31.5q-7 0 -23 11l-15 12l-495 6l-9 11q-8 11 -8 17q0 7 10 11q9 4 121 11q352 22 360 30q11 7 25 11z" />
    <glyph glyph-name="L" unicode="l" horiz-adv-x="707" 
d="M569 386q19 6 33 6q16 0 34 -9q12 -7 15 -11t3 -16q0 -27 -18 -58.5t-33 -31.5q-7 0 -23 11l-15 12l-495 6l-9 11q-8 11 -8 17q0 7 10 11q9 4 121 11q352 22 360 30q11 7 25 11z" />
    <glyph glyph-name="M" unicode="M" horiz-adv-x="666" 
d="M299 412q-2 83 -7 90q-3 3 -7 3q-6 0 -29 -10q-62 -25 -96.5 -75.5t-34.5 -111.5q0 -40 15 -80q20 -53 65 -96.5t88 -50.5l15 -2l-3 120q-1 22 -3 102.5t-3 110.5zM486 456q-18 19 -53.5 35.5t-70.5 21.5l-24 3l3 -35q29 -372 29 -397q0 -7 9 -4l14 5q61 23 98 81.5
t37 130.5v13q-2 37 -19 71q-16 32 -16 47q0 20 -7 28zM290 766q3 7 13 7q12 0 15 -8q2 -6 9 -87.5t7 -97.5q0 -7 3 -9t14 -2q37 0 80.5 -20.5t78.5 -54.5q31 -31 40 -31h3q12 2 28 -6q12 -6 15.5 -13t9.5 -34q8 -42 8 -101q0 -50 -6 -77q-19 -75 -52 -122q-28 -40 -75 -74
t-84 -40q-8 -1 -11 -2t-5 -4.5t-2 -10.5q0 -5 7 -49q5 -33 5 -47q0 -24 -12 -57q-6 -16 -9.5 -21t-9.5 -5q-10 0 -15.5 4.5t-14.5 18.5q-21 36 -21 84q0 19 1 30l3 53l-13 2q-140 31 -211 172q-36 74 -36 149q0 34 7 59q19 71 72.5 122.5t128.5 69.5l32 7l-3 94q-1 22 -1 60
q0 39 1 41z" />
    <glyph glyph-name="M" unicode="m" horiz-adv-x="666" 
d="M299 412q-2 83 -7 90q-3 3 -7 3q-6 0 -29 -10q-62 -25 -96.5 -75.5t-34.5 -111.5q0 -40 15 -80q20 -53 65 -96.5t88 -50.5l15 -2l-3 120q-1 22 -3 102.5t-3 110.5zM486 456q-18 19 -53.5 35.5t-70.5 21.5l-24 3l3 -35q29 -372 29 -397q0 -7 9 -4l14 5q61 23 98 81.5
t37 130.5v13q-2 37 -19 71q-16 32 -16 47q0 20 -7 28zM290 766q3 7 13 7q12 0 15 -8q2 -6 9 -87.5t7 -97.5q0 -7 3 -9t14 -2q37 0 80.5 -20.5t78.5 -54.5q31 -31 40 -31h3q12 2 28 -6q12 -6 15.5 -13t9.5 -34q8 -42 8 -101q0 -50 -6 -77q-19 -75 -52 -122q-28 -40 -75 -74
t-84 -40q-8 -1 -11 -2t-5 -4.5t-2 -10.5q0 -5 7 -49q5 -33 5 -47q0 -24 -12 -57q-6 -16 -9.5 -21t-9.5 -5q-10 0 -15.5 4.5t-14.5 18.5q-21 36 -21 84q0 19 1 30l3 53l-13 2q-140 31 -211 172q-36 74 -36 149q0 34 7 59q19 71 72.5 122.5t128.5 69.5l32 7l-3 94q-1 22 -1 60
q0 39 1 41z" />
    <glyph glyph-name="N" unicode="N" horiz-adv-x="733" 
d="M271 455q-136 78 -138 78v-6q0 -31 3 -232t3 -202q0 -76 2 -76q7 0 223 127t216 131q0 3 -87 52q-54 30 -222 128zM76 626q21 6 27 6q5 0 19 -8q15 -9 15 -22q0 -8 8.5 -14.5t42.5 -24.5q13 -7 231.5 -125.5t239.5 -128.5q20 -9 20 -27q0 -12 -7 -26q-8 -18 -42 -36
q-152 -85 -351 -202q-40 -24 -100 -63q-74 -46 -77 -46q-14 0 -33 40q-8 18 -13 107q-6 116 -6 440q0 118 2 122q3 3 24 8z" />
    <glyph glyph-name="N" unicode="n" horiz-adv-x="733" 
d="M271 455q-136 78 -138 78v-6q0 -31 3 -232t3 -202q0 -76 2 -76q7 0 223 127t216 131q0 3 -87 52q-54 30 -222 128zM76 626q21 6 27 6q5 0 19 -8q15 -9 15 -22q0 -8 8.5 -14.5t42.5 -24.5q13 -7 231.5 -125.5t239.5 -128.5q20 -9 20 -27q0 -12 -7 -26q-8 -18 -42 -36
q-152 -85 -351 -202q-40 -24 -100 -63q-74 -46 -77 -46q-14 0 -33 40q-8 18 -13 107q-6 116 -6 440q0 118 2 122q3 3 24 8z" />
    <glyph glyph-name="O" unicode="O" horiz-adv-x="567" 
d="M445 582l3 96h10q12 0 13 -10q4 -20 16 -278q9 -157 23 -306q3 -34 3 -47q0 -17 -8 -36q-11 -26 -18 -27q-1 0 -2 -0.5t-2 -0.5q-19 0 -38 37q-10 21 -10 45q0 3 2 59q4 90 4 227t4 241zM55 357l-3 290l15 -2l15 -1l3 -41q0 -7 4 -75.5t6 -116.5q17 -342 25 -350
q5 -5 5 -18q0 -20 -9 -42.5t-19 -23.5h-2q-9 0 -20 11.5t-18 29.5q-7 15 -7 24q0 4 3 12q3 9 3 98q0 112 -1 205z" />
    <glyph glyph-name="O" unicode="o" horiz-adv-x="567" 
d="M445 582l3 96h10q12 0 13 -10q4 -20 16 -278q9 -157 23 -306q3 -34 3 -47q0 -17 -8 -36q-11 -26 -18 -27q-1 0 -2 -0.5t-2 -0.5q-19 0 -38 37q-10 21 -10 45q0 3 2 59q4 90 4 227t4 241zM55 357l-3 290l15 -2l15 -1l3 -41q0 -7 4 -75.5t6 -116.5q17 -342 25 -350
q5 -5 5 -18q0 -20 -9 -42.5t-19 -23.5h-2q-9 0 -20 11.5t-18 29.5q-7 15 -7 24q0 4 3 12q3 9 3 98q0 112 -1 205z" />
    <glyph glyph-name="P" unicode="P" horiz-adv-x="258" 
d="M85 599q13 5 31 5q30 0 49 -11q10 -6 12.5 -11t3.5 -19v-6q0 -43 -25 -66q-10 -10 -31 -10q-19 0 -32 9q-9 6 -23.5 33.5t-14.5 38.5q0 15 12 29q0 1 18 8zM112 152q18 5 32 5q43 0 56 -23q3 -6 3 -14q0 -21 -13 -46.5t-29 -32.5q-16 -8 -28 -1q-11 6 -28.5 37.5
t-17.5 44.5q0 22 25 30z" />
    <glyph glyph-name="P" unicode="p" horiz-adv-x="258" 
d="M85 599q13 5 31 5q30 0 49 -11q10 -6 12.5 -11t3.5 -19v-6q0 -43 -25 -66q-10 -10 -31 -10q-19 0 -32 9q-9 6 -23.5 33.5t-14.5 38.5q0 15 12 29q0 1 18 8zM112 152q18 5 32 5q43 0 56 -23q3 -6 3 -14q0 -21 -13 -46.5t-29 -32.5q-16 -8 -28 -1q-11 6 -28.5 37.5
t-17.5 44.5q0 22 25 30z" />
    <glyph glyph-name="Q" unicode="Q" horiz-adv-x="937" 
d="M555 450q-190 5 -230 5q-65 0 -70 -7q-6 -12 -73.5 -160t-69.5 -155q0 -1 -0.5 -1t-0.5 -1q0 -4 27 -4q45 0 88 1q294 5 345 5q228 2 230 4q-103 184 -123 220q-34 60 -45 77.5t-17 17.5h-2q-8 -2 -37 -2h-22zM498 515q62 4 84 4q34 0 42 -4q6 -3 12 -13q14 -23 64 -96
q51 -74 102 -154q42 -66 61 -90q18 -22 18 -34q0 -11 -12 -38q-9 -19 -19 -19q-5 0 -11 6q-5 5 -11 -7l-5 -11l-98 2q-578 14 -630 17q-4 0 -11 1l-6 1q-4 0 -13.5 16.5t-9.5 21.5q0 4 13 19q14 18 91 170q74 148 74 161q0 4 -1 5q-4 8 -4 14q0 11 24.5 15t103.5 6
q103 4 142 7z" />
    <glyph glyph-name="Q" unicode="q" horiz-adv-x="937" 
d="M555 450q-190 5 -230 5q-65 0 -70 -7q-6 -12 -73.5 -160t-69.5 -155q0 -1 -0.5 -1t-0.5 -1q0 -4 27 -4q45 0 88 1q294 5 345 5q228 2 230 4q-103 184 -123 220q-34 60 -45 77.5t-17 17.5h-2q-8 -2 -37 -2h-22zM498 515q62 4 84 4q34 0 42 -4q6 -3 12 -13q14 -23 64 -96
q51 -74 102 -154q42 -66 61 -90q18 -22 18 -34q0 -11 -12 -38q-9 -19 -19 -19q-5 0 -11 6q-5 5 -11 -7l-5 -11l-98 2q-578 14 -630 17q-4 0 -11 1l-6 1q-4 0 -13.5 16.5t-9.5 21.5q0 4 13 19q14 18 91 170q74 148 74 161q0 4 -1 5q-4 8 -4 14q0 11 24.5 15t103.5 6
q103 4 142 7z" />
    <glyph glyph-name="R" unicode="R" horiz-adv-x="779" 
d="M383 644q16 11 25 11q11 0 11 -11q0 -8 -7 -19q-13 -20 -84 -95q-143 -154 -198 -224q-24 -31 -29 -31q-11 0 -29 26t-18 41v2l1 2q2 8 23 24q53 39 219 196q68 64 86 78zM221 53q6 0 121 114t233 232t127 124q13 7 19 1q2 -2 2 -7q0 -14 -23 -43q-4 -5 -25 -29.5
t-57.5 -67.5t-67.5 -79q-240 -281 -252 -306q-7 -13 -15 -32q-11 -24 -24 -31q-10 -4 -12 -4q-4 0 -18 11q-12 10 -28.5 38.5t-16.5 39.5q0 9 7 22t13 15q8 2 17 2z" />
    <glyph glyph-name="R" unicode="r" horiz-adv-x="779" 
d="M383 644q16 11 25 11q11 0 11 -11q0 -8 -7 -19q-13 -20 -84 -95q-143 -154 -198 -224q-24 -31 -29 -31q-11 0 -29 26t-18 41v2l1 2q2 8 23 24q53 39 219 196q68 64 86 78zM221 53q6 0 121 114t233 232t127 124q13 7 19 1q2 -2 2 -7q0 -14 -23 -43q-4 -5 -25 -29.5
t-57.5 -67.5t-67.5 -79q-240 -281 -252 -306q-7 -13 -15 -32q-11 -24 -24 -31q-10 -4 -12 -4q-4 0 -18 11q-12 10 -28.5 38.5t-16.5 39.5q0 9 7 22t13 15q8 2 17 2z" />
    <glyph glyph-name="S" unicode="S" horiz-adv-x="231" 
d="M92 338q18 5 31 5q22 0 39 -10q11 -7 13.5 -11.5t2.5 -20.5q0 -25 -13 -51q-9 -19 -14.5 -25t-17.5 -9q-11 -3 -19 -3q-28 0 -52 39q-9 16 -9 21q0 4 3 10q5 12 5 24q-2 22 31 31z" />
    <glyph glyph-name="S" unicode="s" horiz-adv-x="231" 
d="M92 338q18 5 31 5q22 0 39 -10q11 -7 13.5 -11.5t2.5 -20.5q0 -25 -13 -51q-9 -19 -14.5 -25t-17.5 -9q-11 -3 -19 -3q-28 0 -52 39q-9 16 -9 21q0 4 3 10q5 12 5 24q-2 22 31 31z" />
    <glyph glyph-name="T" unicode="T" horiz-adv-x="820" 
d="M426 392q-40 73 -42 73q-4 0 -75 -148q-17 -36 -38.5 -81.5t-43 -90t-27.5 -56.5l-38 -81l136 1q154 0 235 3l98 3l-83 152q-16 29 -44.5 82t-48 89t-29.5 54zM446 582q0 -3 158.5 -285.5t158.5 -305.5q0 -14 -10.5 -42.5t-20.5 -40.5q-6 -8 -21 -8q-10 0 -14 4
q-5 5 -302 8l-298 2l-11 15q-9 11 -19 29.5t-10 25.5q0 5 7 12t126 234q50 97 106 197q49 92 49 101q0 2 -2 8q-5 12 -5 25q0 24 33 33q26 6 32 6q8 0 25.5 -7t17.5 -11z" />
    <glyph glyph-name="T" unicode="t" horiz-adv-x="820" 
d="M426 392q-40 73 -42 73q-4 0 -75 -148q-17 -36 -38.5 -81.5t-43 -90t-27.5 -56.5l-38 -81l136 1q154 0 235 3l98 3l-83 152q-16 29 -44.5 82t-48 89t-29.5 54zM446 582q0 -3 158.5 -285.5t158.5 -305.5q0 -14 -10.5 -42.5t-20.5 -40.5q-6 -8 -21 -8q-10 0 -14 4
q-5 5 -302 8l-298 2l-11 15q-9 11 -19 29.5t-10 25.5q0 5 7 12t126 234q50 97 106 197q49 92 49 101q0 2 -2 8q-5 12 -5 25q0 24 33 33q26 6 32 6q8 0 25.5 -7t17.5 -11z" />
    <glyph glyph-name="U" unicode="U" horiz-adv-x="995" 
d="M452 684q0 7 -6.5 43.5t-6.5 50.5q0 8 1 10q2 9 5.5 10.5t16.5 0.5l19 -1l10 -36q11 -38 11 -71q0 -24 -7 -40q-7 -13 -15 -13q-9 0 -20 17q-8 12 -8 29zM753 678q17 9 30 9q8 0 18 -5q8 -4 8 -17q0 -42 -75 -122q-10 -10 -19 -5q-10 5 -21 23t-11 29q0 18 23.5 47.5
t46.5 40.5zM154 649q6 7 17 7q30 0 69.5 -37t39.5 -69q0 -10 -6.5 -26.5t-11.5 -19.5q-2 -1 -5 -1q-19 0 -40 41q-19 34 -38 55q-28 31 -28 42q0 5 3 8zM598 500q-30 15 -72 15q-34 0 -61 -10q-64 -23 -106.5 -77.5t-42.5 -113.5q0 -57 34 -111.5t80 -70.5q26 -9 51 -9
q60 0 111 51q30 30 49.5 77.5t19.5 87.5q0 24 -7 39t-7 31q0 19 10 25q6 4 6 7q0 4 -18 23q-21 23 -47 36zM451 562q25 7 54 7q53 0 97 -23q19 -10 45 -35.5t36 -43.5q11 -20 23 -20q10 0 26 -7t20 -13q1 -2 1 -12q0 -26 -7 -92q-9 -76 -47 -140q-22 -38 -61.5 -71.5
t-79.5 -47.5t-76 -14q-78 0 -143 61q-33 31 -54 74q-32 63 -32 115q0 3 0.5 11t0.5 12q5 87 59.5 153t137.5 86zM824 370q22 4 26 4t9 -0.5t14 -1.5l18 -2q38 -4 44 -10q6 -4 6 -18q0 -15 -7 -29l-8 -15h-40q-39 0 -55 7t-27 28q-7 13 -7 17.5t5 8.5q7 7 22 11zM54 295v27
l59 -3q77 -4 77 -18q0 -3 -8 -25l-8 -20l-52 2q-49 2 -60 6q-8 4 -8 31zM726 101q19 7 27 7q16 0 72 -44q31 -24 41.5 -36.5t10.5 -24.5q0 -7 -1 -10q-4 -22 -19 -22q-7 0 -20 3q-20 4 -46 9q-43 6 -71 54q-17 31 -17 43q0 14 23 21zM233 62q18 9 29 9q23 0 23 -25
q0 -27 -26 -58q-11 -14 -41 -37.5t-36 -23.5q-7 0 -18.5 17t-13.5 30q-1 3 -1 8q0 7 5.5 14t26.5 26q35 32 52 40zM492 -15q7 5 16 5q7 0 15 -4q17 -10 17 -73q0 -47 -10 -69q-12 -22 -14 -24q-1 -1 -4 -1q-15 0 -32 35q-7 15 -7 27q0 8 5 46q8 53 14 58z" />
    <glyph glyph-name="U" unicode="u" horiz-adv-x="995" 
d="M452 684q0 7 -6.5 43.5t-6.5 50.5q0 8 1 10q2 9 5.5 10.5t16.5 0.5l19 -1l10 -36q11 -38 11 -71q0 -24 -7 -40q-7 -13 -15 -13q-9 0 -20 17q-8 12 -8 29zM753 678q17 9 30 9q8 0 18 -5q8 -4 8 -17q0 -42 -75 -122q-10 -10 -19 -5q-10 5 -21 23t-11 29q0 18 23.5 47.5
t46.5 40.5zM154 649q6 7 17 7q30 0 69.5 -37t39.5 -69q0 -10 -6.5 -26.5t-11.5 -19.5q-2 -1 -5 -1q-19 0 -40 41q-19 34 -38 55q-28 31 -28 42q0 5 3 8zM598 500q-30 15 -72 15q-34 0 -61 -10q-64 -23 -106.5 -77.5t-42.5 -113.5q0 -57 34 -111.5t80 -70.5q26 -9 51 -9
q60 0 111 51q30 30 49.5 77.5t19.5 87.5q0 24 -7 39t-7 31q0 19 10 25q6 4 6 7q0 4 -18 23q-21 23 -47 36zM451 562q25 7 54 7q53 0 97 -23q19 -10 45 -35.5t36 -43.5q11 -20 23 -20q10 0 26 -7t20 -13q1 -2 1 -12q0 -26 -7 -92q-9 -76 -47 -140q-22 -38 -61.5 -71.5
t-79.5 -47.5t-76 -14q-78 0 -143 61q-33 31 -54 74q-32 63 -32 115q0 3 0.5 11t0.5 12q5 87 59.5 153t137.5 86zM824 370q22 4 26 4t9 -0.5t14 -1.5l18 -2q38 -4 44 -10q6 -4 6 -18q0 -15 -7 -29l-8 -15h-40q-39 0 -55 7t-27 28q-7 13 -7 17.5t5 8.5q7 7 22 11zM54 295v27
l59 -3q77 -4 77 -18q0 -3 -8 -25l-8 -20l-52 2q-49 2 -60 6q-8 4 -8 31zM726 101q19 7 27 7q16 0 72 -44q31 -24 41.5 -36.5t10.5 -24.5q0 -7 -1 -10q-4 -22 -19 -22q-7 0 -20 3q-20 4 -46 9q-43 6 -71 54q-17 31 -17 43q0 14 23 21zM233 62q18 9 29 9q23 0 23 -25
q0 -27 -26 -58q-11 -14 -41 -37.5t-36 -23.5q-7 0 -18.5 17t-13.5 30q-1 3 -1 8q0 7 5.5 14t26.5 26q35 32 52 40zM492 -15q7 5 16 5q7 0 15 -4q17 -10 17 -73q0 -47 -10 -69q-12 -22 -14 -24q-1 -1 -4 -1q-15 0 -32 35q-7 15 -7 27q0 8 5 46q8 53 14 58z" />
    <glyph glyph-name="V" unicode="V" horiz-adv-x="867" 
d="M472 394q-15 15 -25 15q-7 0 -26 -8q-9 -4 -16 -5.5t-10 -1.5t-6.5 -4t-8.5 -14q-8 -16 -8 -31q0 -9 1 -15q2 -28 9.5 -41t25.5 -19t42 -6q27 0 43 8l15 9l-2 27q-6 56 -34 86zM342 412q7 10 7 14q0 3 -4 3q-8 0 -41 -9q-74 -20 -126 -78q-23 -26 -29.5 -37.5
t-16.5 -47.5q-14 -50 -14 -79q0 -26 9 -57q10 -35 23 -55.5t46 -49.5q36 -32 56 -45t54 -25q27 -9 43.5 -11t73.5 -2q58 0 73.5 2t39.5 12q109 44 159 114q24 34 40 87.5t17 108.5v18q0 28 -10 48q-18 38 -72 73q-48 33 -105 33q-28 0 -28 -4q0 -2 1 -4q15 -29 15 -100
q0 -55 -16.5 -75t-67.5 -31q-24 -4 -26 -4q-8 0 -34 8q-33 11 -44 18.5t-21 28.5q-21 40 -21 80q0 36 19 66zM487 513q23 5 88 5q45 -1 57 -3t31 -12q31 -16 65.5 -45.5t48.5 -53.5q37 -63 37 -127q0 -25 -3 -56q-25 -234 -220 -334q-52 -27 -75.5 -34t-66.5 -7
q-5 0 -19 0.5t-23 0.5q-65 2 -80.5 3.5t-43.5 11.5q-72 26 -141 98q-88 90 -89 216q0 47 16 99q17 55 28.5 75.5t45.5 58.5q39 43 76 61q76 36 119 36q15 0 15 4q0 5 40 5q31 0 51 -4q10 -2 16 -2q12 0 27 4z" />
    <glyph glyph-name="V" unicode="v" horiz-adv-x="867" 
d="M472 394q-15 15 -25 15q-7 0 -26 -8q-9 -4 -16 -5.5t-10 -1.5t-6.5 -4t-8.5 -14q-8 -16 -8 -31q0 -9 1 -15q2 -28 9.5 -41t25.5 -19t42 -6q27 0 43 8l15 9l-2 27q-6 56 -34 86zM342 412q7 10 7 14q0 3 -4 3q-8 0 -41 -9q-74 -20 -126 -78q-23 -26 -29.5 -37.5
t-16.5 -47.5q-14 -50 -14 -79q0 -26 9 -57q10 -35 23 -55.5t46 -49.5q36 -32 56 -45t54 -25q27 -9 43.5 -11t73.5 -2q58 0 73.5 2t39.5 12q109 44 159 114q24 34 40 87.5t17 108.5v18q0 28 -10 48q-18 38 -72 73q-48 33 -105 33q-28 0 -28 -4q0 -2 1 -4q15 -29 15 -100
q0 -55 -16.5 -75t-67.5 -31q-24 -4 -26 -4q-8 0 -34 8q-33 11 -44 18.5t-21 28.5q-21 40 -21 80q0 36 19 66zM487 513q23 5 88 5q45 -1 57 -3t31 -12q31 -16 65.5 -45.5t48.5 -53.5q37 -63 37 -127q0 -25 -3 -56q-25 -234 -220 -334q-52 -27 -75.5 -34t-66.5 -7
q-5 0 -19 0.5t-23 0.5q-65 2 -80.5 3.5t-43.5 11.5q-72 26 -141 98q-88 90 -89 216q0 47 16 99q17 55 28.5 75.5t45.5 58.5q39 43 76 61q76 36 119 36q15 0 15 4q0 5 40 5q31 0 51 -4q10 -2 16 -2q12 0 27 4z" />
    <glyph glyph-name="W" unicode="W" horiz-adv-x="741" 
d="M174 8q-13 0 -29 27t-16 38q0 10 9 24.5t19 21.5q9 6 62 71t85 109l14 20l-50 45q-197 175 -207 193q-4 7 -4 14q0 12 16 12q21 0 217 -157q66 -51 67 -51l163 210q7 7 17 7q9 0 11 -6v-2l1 -2q0 -9 -51 -87q-6 -10 -10 -15t-10 -14.5t-11 -17.5q-68 -103 -68 -105
q-1 -2 84 -72t122 -97t56 -34q25 -9 25 -28q0 -17 -18 -56q-14 -31 -24 -31q-8 0 -20 11t-42 44q-19 22 -125 116l-99 88l-21 -31q-39 -58 -78.5 -123t-43.5 -76q-5 -14 -19 -30t-22 -16z" />
    <glyph glyph-name="W" unicode="w" horiz-adv-x="741" 
d="M174 8q-13 0 -29 27t-16 38q0 10 9 24.5t19 21.5q9 6 62 71t85 109l14 20l-50 45q-197 175 -207 193q-4 7 -4 14q0 12 16 12q21 0 217 -157q66 -51 67 -51l163 210q7 7 17 7q9 0 11 -6v-2l1 -2q0 -9 -51 -87q-6 -10 -10 -15t-10 -14.5t-11 -17.5q-68 -103 -68 -105
q-1 -2 84 -72t122 -97t56 -34q25 -9 25 -28q0 -17 -18 -56q-14 -31 -24 -31q-8 0 -20 11t-42 44q-19 22 -125 116l-99 88l-21 -31q-39 -58 -78.5 -123t-43.5 -76q-5 -14 -19 -30t-22 -16z" />
    <glyph glyph-name="X" unicode="X" horiz-adv-x="816" 
d="M320 217q-13 11 -16 11q-2 0 -18.5 -33t-16.5 -38q0 -1 32 24l32 26zM543 196q-18 54 -24 54q-5 0 -26 -19l-22 -20l40 -31q43 -35 45 -35q1 0 0 6.5t-4.5 18.5t-8.5 26zM308 400v1q1 1 1 2q0 4 -15 4q-1 0 -49 -2l-26 -2q12 -9 35.5 -26.5t35.5 -26.5l7 21q10 24 11 29z
M479 377q-13 39 -20 39q-5 0 -41 -2l-34 -2l-22 -49q-19 -43 -19 -52l1 -2q14 -13 35 -27t27 -14h1q11 7 46 36l40 33zM555 390q24 20 36 31l-21 1q-24 0 -24 -8l4 -12zM434 490q7 1 1 10q-5 6 -6.5 6t-3.5 -6q-3 -7 -1 -9.5t10 -0.5zM415 646q12 4 26 4q28 0 33 -16
q5 -20 23 -74l21 -67l30 2q137 8 161 13q12 3 19 3q8 0 18 -6q14 -6 14 -16q0 -1 -0.5 -4t-0.5 -5q-2 -18 -12.5 -38.5t-21.5 -27.5q-11 -8 -75.5 -59t-64.5 -53q0 -11 60 -173q23 -60 23 -91q0 -17 -8 -35q-13 -22 -17 -22q-7 0 -117.5 81.5t-116.5 87.5q-1 1 -3 1
q-11 0 -90 -65q-82 -68 -105 -91q-19 -19 -27 -19q-9 0 -21 12t-19 28q-8 18 -8 28q0 16 15 21q11 3 30 20q18 17 46 93q28 75 28 85q-1 4 -57.5 48.5t-86.5 64.5q-38 27 -51 60q-4 8 -4 17q0 14 14 20q8 3 89 5q111 3 131 4l51 4l23 68q25 72 30 78q9 11 21 14z" />
    <glyph glyph-name="X" unicode="x" horiz-adv-x="816" 
d="M320 217q-13 11 -16 11q-2 0 -18.5 -33t-16.5 -38q0 -1 32 24l32 26zM543 196q-18 54 -24 54q-5 0 -26 -19l-22 -20l40 -31q43 -35 45 -35q1 0 0 6.5t-4.5 18.5t-8.5 26zM308 400v1q1 1 1 2q0 4 -15 4q-1 0 -49 -2l-26 -2q12 -9 35.5 -26.5t35.5 -26.5l7 21q10 24 11 29z
M479 377q-13 39 -20 39q-5 0 -41 -2l-34 -2l-22 -49q-19 -43 -19 -52l1 -2q14 -13 35 -27t27 -14h1q11 7 46 36l40 33zM555 390q24 20 36 31l-21 1q-24 0 -24 -8l4 -12zM434 490q7 1 1 10q-5 6 -6.5 6t-3.5 -6q-3 -7 -1 -9.5t10 -0.5zM415 646q12 4 26 4q28 0 33 -16
q5 -20 23 -74l21 -67l30 2q137 8 161 13q12 3 19 3q8 0 18 -6q14 -6 14 -16q0 -1 -0.5 -4t-0.5 -5q-2 -18 -12.5 -38.5t-21.5 -27.5q-11 -8 -75.5 -59t-64.5 -53q0 -11 60 -173q23 -60 23 -91q0 -17 -8 -35q-13 -22 -17 -22q-7 0 -117.5 81.5t-116.5 87.5q-1 1 -3 1
q-11 0 -90 -65q-82 -68 -105 -91q-19 -19 -27 -19q-9 0 -21 12t-19 28q-8 18 -8 28q0 16 15 21q11 3 30 20q18 17 46 93q28 75 28 85q-1 4 -57.5 48.5t-86.5 64.5q-38 27 -51 60q-4 8 -4 17q0 14 14 20q8 3 89 5q111 3 131 4l51 4l23 68q25 72 30 78q9 11 21 14z" />
    <glyph glyph-name="Y" unicode="Y" horiz-adv-x="792" 
d="M577 588q-47 16 -106 17h-24q-62 0 -117 -21q-43 -16 -91.5 -58t-69.5 -81q-26 -49 -26 -122q0 -109 72.5 -200.5t175.5 -112.5q37 -7 66 -7q109 0 198 58l24 16l-35 5q-119 18 -178 124q-34 62 -34 123q0 37 11 69q20 60 66 103q20 19 57.5 39.5t50.5 20.5q8 0 8 3
q0 8 -48 24zM403 725q32 7 81 7q44 0 74 -6q56 -11 126 -50l44 -25v-21q0 -21 -6 -33q-3 -5 -12 -31q-6 -20 -11 -25.5t-21 -8.5q-27 -5 -60.5 -23.5t-58.5 -43.5q-56 -56 -60 -115v-12q0 -58 36 -108t88 -63q32 -7 39 -7q9 0 26 5q12 4 16 4q6 0 18 -6q15 -7 15 -14
q0 -1 -2 -11q-3 -12 -5 -33q-3 -33 -68 -85q-53 -42 -119 -63q-35 -11 -101 -11q-56 0 -85.5 6t-73.5 26q-107 47 -171 162q-59 107 -59 203q0 64 26 131q82 208 324 251z" />
    <glyph glyph-name="Y" unicode="y" horiz-adv-x="792" 
d="M577 588q-47 16 -106 17h-24q-62 0 -117 -21q-43 -16 -91.5 -58t-69.5 -81q-26 -49 -26 -122q0 -109 72.5 -200.5t175.5 -112.5q37 -7 66 -7q109 0 198 58l24 16l-35 5q-119 18 -178 124q-34 62 -34 123q0 37 11 69q20 60 66 103q20 19 57.5 39.5t50.5 20.5q8 0 8 3
q0 8 -48 24zM403 725q32 7 81 7q44 0 74 -6q56 -11 126 -50l44 -25v-21q0 -21 -6 -33q-3 -5 -12 -31q-6 -20 -11 -25.5t-21 -8.5q-27 -5 -60.5 -23.5t-58.5 -43.5q-56 -56 -60 -115v-12q0 -58 36 -108t88 -63q32 -7 39 -7q9 0 26 5q12 4 16 4q6 0 18 -6q15 -7 15 -14
q0 -1 -2 -11q-3 -12 -5 -33q-3 -33 -68 -85q-53 -42 -119 -63q-35 -11 -101 -11q-56 0 -85.5 6t-73.5 26q-107 47 -171 162q-59 107 -59 203q0 64 26 131q82 208 324 251z" />
    <glyph glyph-name="Z" unicode="Z" horiz-adv-x="938" 
d="M219 710q10 4 16 4q16 0 203 -132q115 -80 254 -173t149 -96t29 -13q14 -9 14 -19q0 -1 -0.5 -5t-0.5 -7q-2 -17 -14 -47.5t-20 -39.5q-6 -8 -14 -8t-24.5 12t-21.5 22t-36 35q-63 52 -224.5 180.5t-225.5 181.5q-94 76 -94 94q0 6 10 11zM62 393q7 5 20 5q18 0 43 -13
q59 -30 324 -207q100 -65 119 -74q14 -6 16.5 -10t2.5 -17q0 -20 -5 -32q-13 -32 -20.5 -43.5t-15.5 -11.5q-9 0 -32 21q-13 12 -99 75q-310 225 -340 260q-19 22 -19 35q0 7 6 12z" />
    <glyph glyph-name="Z" unicode="z" horiz-adv-x="938" 
d="M219 710q10 4 16 4q16 0 203 -132q115 -80 254 -173t149 -96t29 -13q14 -9 14 -19q0 -1 -0.5 -5t-0.5 -7q-2 -17 -14 -47.5t-20 -39.5q-6 -8 -14 -8t-24.5 12t-21.5 22t-36 35q-63 52 -224.5 180.5t-225.5 181.5q-94 76 -94 94q0 6 10 11zM62 393q7 5 20 5q18 0 43 -13
q59 -30 324 -207q100 -65 119 -74q14 -6 16.5 -10t2.5 -17q0 -20 -5 -32q-13 -32 -20.5 -43.5t-15.5 -11.5q-9 0 -32 21q-13 12 -99 75q-310 225 -340 260q-19 22 -19 35q0 7 6 12z" />
    <glyph glyph-name="nbsp" unicode="&#xa0;" 
 />
  </font>
</defs>
</svg>
